# Blender 4.1.1
# www.blender.org
mtllib bookshelf_broken.mtl
o bookshelf_broken
v -0.183154 0.043212 0.072814
v -0.183154 0.853947 0.072814
v -0.241397 0.000000 -0.072814
v -0.241397 0.897159 -0.072814
v 0.183154 0.043212 0.072814
v 0.183154 0.853947 0.072814
v 0.241397 0.000000 -0.072814
v 0.241397 0.897159 -0.072814
v -0.241397 0.000000 0.072814
v 0.241397 0.897159 0.072814
v 0.241397 0.000000 0.072814
v -0.183154 0.043212 -0.023899
v -0.183154 0.853947 -0.023899
v 0.183154 0.853947 -0.023899
v 0.183154 0.043212 -0.023899
v -0.207387 0.871926 0.072814
v -0.193300 0.897159 0.072814
v -0.241397 0.897159 0.050091
v -0.241397 0.861474 0.072814
v -0.241397 0.448579 -0.072814
v 0.241397 0.448579 -0.072814
v -0.183154 0.448579 0.072814
v 0.183154 0.448579 0.072814
v -0.183154 0.448579 -0.023899
v 0.183154 0.448579 -0.023899
v 0.241397 0.448579 0.057313
v 0.241397 0.531594 0.072814
v 0.213583 0.433576 0.072814
v 0.241397 0.350083 0.072814
v -0.198318 0.706211 0.069466
v -0.198318 0.742824 0.069466
v -0.198318 0.706211 -0.026469
v -0.198318 0.742824 -0.026469
v 0.198318 0.706211 0.069466
v 0.198318 0.742824 0.069466
v 0.198318 0.706211 -0.026469
v 0.198318 0.742824 -0.026469
v -0.191575 0.487010 0.069466
v -0.198304 0.517281 0.069466
v -0.191575 0.487010 -0.026469
v -0.198304 0.522999 -0.026469
v 0.198304 0.559909 0.069466
v 0.198304 0.559909 -0.026469
v 0.191575 0.595898 -0.026469
v -0.196381 0.322059 0.067112
v -0.198731 0.358365 0.068077
v -0.197076 0.332791 -0.028219
v -0.199426 0.369097 -0.024114
v 0.199426 0.347683 0.067112
v 0.197076 0.383989 0.071216
v 0.198731 0.358415 -0.028219
v 0.196381 0.394721 -0.024114
v -0.199145 0.177816 0.069466
v -0.195324 0.214229 0.069466
v -0.199145 0.177816 -0.026469
v -0.195324 0.214229 -0.026469
v 0.195324 0.136424 0.069466
v 0.199145 0.172836 0.069466
v 0.195324 0.136424 -0.026469
v 0.199145 0.172836 -0.026469
v 0.000828 0.345603 -0.028219
v -0.001523 0.381909 -0.024114
v 0.001523 0.334871 0.067112
v -0.000090 0.359780 0.069928
v 0.053281 0.374680 0.071216
v -0.000984 0.373582 0.049850
v -0.048902 0.368065 0.071216
v 0.113334 0.581269 0.069466
v 0.193266 0.586853 0.069466
v 0.191575 0.595898 0.049965
v 0.000000 0.706211 -0.026469
v 0.000000 0.742824 -0.026469
v 0.000000 0.742824 0.069466
v 0.000000 0.717852 0.069466
v -0.043010 0.706211 0.069466
v 0.022908 0.706211 0.065467
v 0.043010 0.706211 0.069466
v -0.109844 0.168446 -0.026469
v -0.106023 0.204859 -0.026469
v -0.109844 0.168446 0.069466
v -0.106797 0.192329 0.069466
v -0.053238 0.199320 0.069466
v -0.106023 0.204859 0.053565
v -0.158808 0.210398 0.069466
vn -0.0000 1.0000 -0.0000
vn -0.0000 -0.0000 -1.0000
vn -0.0000 -1.0000 -0.0000
vn -0.0000 -0.0000 1.0000
vn -1.0000 -0.0000 -0.0000
vn 1.0000 -0.0000 -0.0000
vn -0.2914 0.3928 0.8723
vn 0.4868 -0.0000 0.8735
vn -0.9800 -0.1990 -0.0059
vn 0.1838 -0.9830 -0.0000
vn 0.9830 0.1838 -0.0000
vn -0.9979 -0.0646 -0.0000
vn -0.0072 0.1119 -0.9937
vn 0.9979 0.0646 -0.0000
vn -0.0642 0.9916 0.1121
vn 0.0642 -0.9916 -0.1121
vn 0.0072 -0.1119 0.9937
vn -0.9945 0.1044 -0.0000
vn 0.9945 -0.1044 -0.0000
vn 0.1044 0.9945 -0.0000
vn -0.1044 -0.9945 -0.0000
vn -0.0031 -0.0790 0.9969
vn -0.0532 0.8218 0.5673
vn -0.0651 0.9914 0.1135
vn -0.0631 0.9033 0.4244
vn -0.1908 0.9813 0.0239
vn -0.0000 -0.3250 0.9457
vn 0.0819 0.7809 0.6193
vt 0.331445 0.923828
vt 0.334179 0.923828
vt 0.334179 0.926135
vt 0.333906 0.926562
vt 0.331445 0.926562
vt 0.330078 0.921094
vt 0.331445 0.921094
vt 0.330078 0.923828
vt 0.331325 0.926892
vt 0.331325 0.928966
vt 0.325978 0.923828
vt 0.328711 0.923828
vt 0.328711 0.926562
vt 0.325978 0.926562
vt 0.331445 0.929023
vt 0.331375 0.929103
vt 0.328711 0.918361
vt 0.331336 0.918361
vt 0.331445 0.918787
vt 0.328711 0.921094
vt 0.330331 0.926562
vt 0.330078 0.926271
vt 0.328832 0.926892
vt 0.328832 0.928966
vt 0.328711 0.929295
vt 0.330078 0.926892
vt 0.330078 0.928966
vt 0.331336 0.929295
vt 0.329778 0.926562
vt 0.330032 0.926719
vt 0.086524 0.935939
vt 0.089257 0.935939
vt 0.089257 0.938673
vt 0.086524 0.938673
vt 0.086524 0.940039
vt 0.089257 0.940039
vt 0.089257 0.941406
vt 0.086524 0.941406
vt 0.089257 0.944140
vt 0.086524 0.944140
vt 0.086524 0.945803
vt 0.087393 0.945507
vt 0.089257 0.945507
vt 0.089257 0.946874
vt 0.086524 0.946874
vt 0.090624 0.941406
vt 0.091991 0.941406
vt 0.091991 0.944140
vt 0.090624 0.944140
vt 0.088570 0.944140
vt 0.089257 0.944688
vt 0.083790 0.941406
vt 0.083790 0.944140
vt 0.089257 0.943584
vt 0.090624 0.943527
vt 0.090251 0.944140
vt 0.085157 0.941406
vt 0.085157 0.944140
vt 0.089257 0.945133
vt 0.088399 0.945507
vt 0.086524 0.945507
vt 0.086524 0.939291
vt 0.089257 0.939291
vt 0.091372 0.941406
vt 0.091372 0.943687
vt 0.091006 0.944140
vt 0.084409 0.941406
vt 0.084409 0.944140
vt 0.089257 0.945889
vt 0.088704 0.946255
vt 0.086524 0.946255
vt 0.089257 0.945839
vt 0.090956 0.944140
vt 0.089806 0.944140
vt 0.085453 0.944140
vt 0.085315 0.944026
vt 0.084861 0.944140
vt 0.086524 0.945210
vt 0.089257 0.946620
vt 0.091738 0.944140
s 0
usemtl texture
f 8/1/1 4/2/1 18/3/1 17/4/1 10/5/1
f 20/6/2 4/7/2 8/1/2 21/8/2
f 6/9/3 2/10/3 13/10/3 14/9/3
f 3/11/3 7/12/3 11/13/3 9/14/3
f 2/10/4 6/9/4 10/5/4 17/15/4 16/16/4
f 9/17/5 19/18/5 18/19/5 4/7/5 20/6/5 3/20/5
f 21/8/6 8/1/6 10/5/6 27/21/6 26/22/6
f 5/23/4 1/24/4 9/25/4 11/13/4
f 25/26/4 14/9/4 13/10/4 24/27/4
f 23/26/5 6/9/5 14/9/5 25/26/5
f 1/24/1 5/23/1 15/23/1 12/24/1
f 22/27/6 1/24/6 12/24/6 24/27/6
f 16/16/7 17/15/7 18/3/7 19/18/7
f 1/24/4 22/27/4 2/10/4 16/16/4 19/28/4 9/25/4
f 2/10/6 22/27/6 24/27/6 13/10/6
f 5/23/5 23/26/5 25/26/5 15/23/5
f 15/23/4 25/26/4 24/27/4 12/24/4
f 23/26/4 5/23/4 11/13/4 29/29/4 28/30/4
f 6/9/4 23/26/4 28/30/4 27/21/4 10/5/4
f 3/20/2 20/6/2 21/8/2 7/12/2
f 26/22/8 27/21/8 28/30/8 29/29/8
f 7/12/6 21/8/6 26/22/6 29/29/6 11/13/6
f 30/31/5 31/32/5 33/33/5 32/34/5
f 71/35/2 72/36/2 37/37/2 36/38/2
f 36/38/6 37/37/6 35/39/6 34/40/6
f 75/41/4 74/42/4 73/43/4 31/44/4 30/45/4
f 72/46/1 33/47/1 31/48/1 73/49/1
f 38/31/9 39/32/9 41/33/9 40/34/9
f 40/34/2 41/33/2 44/37/2 43/38/2
f 42/40/4 69/50/4 68/51/4 39/44/4 38/45/4
f 40/52/10 43/38/10 42/40/10 38/53/10
f 43/38/11 44/37/11 70/54/11 69/50/11 42/40/11
f 45/31/12 46/32/12 48/33/12 47/34/12
f 61/35/13 62/36/13 52/37/13 51/38/13
f 51/38/14 52/37/14 50/39/14 49/40/14
f 52/37/15 62/46/15 66/55/15 65/56/15 50/39/15
f 61/57/16 51/38/16 49/40/16 63/58/16
f 49/40/17 50/39/17 65/59/17 64/60/17 63/61/17
f 53/31/18 54/32/18 56/33/18 55/34/18
f 78/62/2 79/63/2 60/37/2 59/38/2
f 59/38/19 60/37/19 58/39/19 57/40/19
f 60/37/20 79/64/20 83/65/20 82/66/20 58/39/20
f 78/67/21 59/38/21 57/40/21 80/68/21
f 57/40/4 58/39/4 82/69/4 81/70/4 80/71/4
f 47/52/16 61/57/16 63/58/16 45/53/16
f 63/61/22 64/60/22 67/72/22 46/44/22 45/45/22
f 47/34/13 48/33/13 62/36/13 61/35/13
f 64/60/23 65/59/23 66/55/23 67/73/23
f 62/46/24 48/47/24 46/48/24 67/73/24 66/55/24
f 68/74/25 69/50/25 70/54/25
f 44/37/26 41/47/26 39/48/26 68/74/26 70/54/26
f 37/37/1 72/46/1 73/49/1 35/39/1
f 71/57/3 36/38/3 34/40/3 77/75/3 76/76/3
f 32/52/3 71/57/3 76/76/3 75/77/3 30/53/3
f 32/34/2 33/33/2 72/36/2 71/35/2
f 74/42/27 75/41/27 76/76/27 77/75/27
f 34/40/4 35/39/4 73/43/4 74/42/4 77/78/4
f 55/52/21 78/67/21 80/68/21 53/53/21
f 80/71/4 81/70/4 84/79/4 54/44/4 53/45/4
f 55/34/2 56/33/2 79/63/2 78/62/2
f 81/70/28 82/69/28 83/65/28 84/80/28
f 79/64/20 56/47/20 54/48/20 84/80/20 83/65/20
