# Blender 4.1.1
# www.blender.org
mtllib floor_5.mtl
o floor_5
v -0.741919 -0.023428 0.733069
v 0.792178 -0.023428 0.733069
v -0.741919 -0.023428 -0.666931
v 0.792178 -0.023428 -0.666931
v -0.741919 -0.006424 0.733069
v 0.792178 -0.006424 0.733069
v -0.741919 -0.006424 -0.666931
v 0.792178 -0.006424 -0.666931
v -0.359574 -0.006424 -0.303471
v -0.248572 -0.006424 -0.229470
v -0.317287 -0.006424 -0.131683
v -0.446789 -0.006424 -0.284971
v -0.100570 -0.006424 -0.160755
v 0.055361 -0.006424 -0.271757
v 0.124076 -0.006424 -0.184541
v -0.029212 -0.006424 -0.166041
v -0.238001 -0.006424 0.079748
v -0.206286 -0.006424 0.016319
v -0.150785 -0.006424 0.029533
v -0.076784 -0.006424 0.087677
v -0.203656 0.013167 0.013851
v -0.149244 0.010123 0.030734
v -0.079425 0.005572 0.093674
v 0.146007 -0.006424 -0.105608
v 0.146007 -0.006424 0.039431
v 0.292834 -0.006424 0.041220
v 0.294670 -0.006424 -0.127632
v -0.095942 -0.006424 0.251968
v -0.266945 -0.006424 0.208236
v -0.268781 -0.006424 0.358734
v -0.046704 -0.006424 0.355064
v -0.443138 -0.006424 0.107292
v -0.487186 -0.006424 -0.054218
v -0.309158 -0.006424 -0.089089
v -0.294475 -0.006424 0.079762
v 0.294670 -0.006374 -0.127632
v -0.238004 -0.006376 0.079737
v -0.218044 0.012908 0.077522
v -0.228572 0.013776 0.056334
v -0.294475 -0.000197 0.079762
v -0.266945 -0.001910 0.208236
v -0.046820 -0.006424 0.059168
v 0.025128 -0.006424 -0.063570
v 0.116828 -0.006424 0.038007
v 0.106953 -0.006424 0.139583
v -0.046820 0.000040 0.059168
v -0.039816 0.005066 0.057159
v 0.025995 0.005066 -0.055110
v 0.025128 0.000040 -0.063570
v 0.111611 0.005066 0.039728
v 0.116828 0.000040 0.038007
v 0.102672 0.005066 0.131673
v 0.106953 0.000040 0.139583
v -0.097160 -0.001251 0.253431
v -0.095942 -0.003038 0.251968
v -0.267024 -0.000367 0.356973
v -0.268781 -0.002079 0.358734
v -0.046704 -0.002098 0.355064
v -0.049434 -0.000483 0.353373
v -0.265538 0.006658 0.235028
v -0.267218 0.005413 0.230594
v -0.255709 0.007681 0.210146
v -0.258319 0.006343 0.208091
v 0.147884 -0.001325 -0.103988
v 0.146007 -0.003198 -0.105608
v 0.146007 -0.003198 0.039431
v 0.147884 -0.001325 0.037577
v 0.290978 -0.001625 0.039320
v 0.292834 -0.003505 0.041220
v 0.232388 -0.001500 -0.116508
v 0.235453 -0.001701 -0.118913
v 0.292106 -0.001625 -0.064416
v 0.294018 -0.002660 -0.067713
v -0.099820 0.001734 -0.158543
v -0.074108 0.009395 -0.166739
v 0.051485 0.012260 -0.263292
v 0.053633 0.005021 -0.272690
v 0.110452 0.014415 -0.193803
v 0.124269 0.007686 -0.187262
v -0.029052 0.010632 -0.171744
v -0.028562 0.003454 -0.165173
v -0.359574 0.030737 -0.302208
v -0.360133 0.032903 -0.299255
v -0.252427 0.018423 -0.228926
v -0.248572 0.015814 -0.229615
v -0.317487 -0.000247 -0.138244
v -0.317287 -0.003964 -0.132697
v -0.441742 0.029412 -0.282300
v -0.446789 0.026997 -0.284068
v -0.442119 0.008198 0.105674
v -0.443138 0.006986 0.107292
v -0.485429 -0.003328 -0.053130
v -0.487186 -0.004741 -0.054218
v -0.310426 -0.003329 -0.087409
v -0.309158 -0.004737 -0.089089
v -0.296697 0.007634 0.070480
v -0.295097 0.006501 0.072612
v -0.324216 0.008199 0.083840
v -0.319292 0.006998 0.084358
vn -0.0000 -1.0000 -0.0000
vn -0.0000 1.0000 -0.0000
vn 1.0000 -0.0000 -0.0000
vn -1.0000 -0.0000 -0.0000
vn -0.0000 -0.0000 -1.0000
vn -0.0000 -0.0000 1.0000
vn 0.0841 -0.1741 0.9811
vn -0.0282 0.9996 -0.0070
vn 0.7778 -0.0430 -0.6271
vn 0.1301 0.0718 0.9889
vn -0.0816 -0.0744 0.9939
vn 0.2619 -0.0640 -0.9630
vn 0.6333 0.2121 -0.7443
vn 0.0510 0.9986 0.0156
vn -0.2061 0.0300 -0.9781
vn -0.0000 0.9795 0.2017
vn 0.8154 0.0271 0.5783
vn -0.7618 0.0020 0.6478
vn -0.0122 -0.0000 0.9999
vn -0.1467 -0.0080 -0.9891
vn -0.6736 0.6999 -0.2375
vn -0.1922 -0.0000 -0.9814
vn 0.9999 -0.0000 0.0109
vn -0.9999 -0.0000 -0.0122
vn 0.3215 0.7049 0.6323
vn 0.1821 -0.0000 0.9833
vn 0.2445 -0.1392 -0.9596
vn 0.9024 -0.0000 -0.4310
vn 0.9962 -0.0000 -0.0866
vn 0.0696 0.9957 -0.0610
vn -0.6327 0.6943 0.3429
vn -0.8813 -0.0394 -0.4710
vn -0.9648 -0.0000 0.2631
vn 0.0165 -0.0000 0.9999
vn -0.4634 -0.0000 0.8861
vn 0.7423 -0.0000 -0.6701
vn 0.9953 -0.0000 0.0968
vn -0.6100 0.7071 -0.3576
vn 0.5249 0.7071 -0.4738
vn 0.7038 0.7071 0.0684
vn -0.3277 0.7071 0.6266
vn -0.8627 -0.0000 -0.5057
vn 0.0117 0.7216 0.6922
vn 0.6312 0.7121 -0.3074
vn -0.3816 0.9174 -0.1130
vn 0.2278 0.6814 -0.6955
vn -0.6673 0.7440 0.0351
vn 0.0218 0.9994 0.0271
vn -0.7064 0.7078 -0.0000
vn -0.0071 0.7071 0.7071
vn 0.1112 0.9869 -0.1170
vn 0.6142 0.7891 0.0098
vn -0.0771 0.8768 -0.4746
vn 0.0021 1.0000 -0.0000
vn -0.4278 0.7206 -0.5456
vn 0.5330 0.7050 -0.4679
vn 0.0829 0.7275 0.6811
vn 0.0591 0.6519 0.7560
vn -0.5884 0.0234 -0.8082
vn 0.4222 0.7633 -0.4890
vn 0.5004 0.7058 0.5015
vn -0.4638 0.7007 0.5422
vn -0.1593 0.7798 -0.6054
vn 0.5517 0.0157 -0.8339
vn -0.6682 0.7327 0.1290
vn -0.1362 0.7058 -0.6952
vn 0.1876 0.9187 0.3476
vn 0.1186 0.7588 0.6405
vn 0.6689 0.7353 -0.1092
vn -0.0131 0.9976 -0.0685
vt 0.052233 0.103015
vt 0.052233 0.115735
vt 0.064954 0.115735
vt 0.064954 0.103015
vt 0.057998 0.106449
vt 0.056157 0.106416
vt 0.094661 0.206839
vt 0.095253 0.206887
vt 0.056675 0.109527
vt 0.057135 0.109407
vt 0.057749 0.108879
vt 0.057997 0.109138
vt 0.058594 0.110253
vt 0.059354 0.109330
vt 0.059596 0.109317
vt 0.059596 0.110635
vt 0.059414 0.111352
vt 0.058143 0.111184
vt 0.057551 0.111136
vt 0.056324 0.111760
vt 0.055754 0.110872
vt 0.054681 0.112265
vt 0.054346 0.110168
vt 0.055822 0.110485
vt 0.055944 0.108951
vt 0.056412 0.108951
vt 0.055404 0.112433
vt 0.058844 0.112145
vt 0.154536 0.182367
vt 0.153465 0.181532
vt 0.153840 0.181562
vt 0.155004 0.181716
vt 0.096524 0.207055
vt 0.152115 0.179263
vt 0.153452 0.179191
vt 0.152294 0.179254
vt 0.152838 0.179720
vt 0.152378 0.179840
vt 0.152195 0.179439
vt 0.092513 0.208136
vt 0.091790 0.207968
vt 0.151102 0.182719
vt 0.150426 0.182562
vt 0.151456 0.181225
vt 0.151995 0.182066
vt 0.092864 0.206575
vt 0.093434 0.207464
vt 0.091790 0.207968
vt 0.155299 0.179630
vt 0.156517 0.179613
vt 0.060829 0.110835
vt 0.056172 0.107783
vt 0.057983 0.107817
vt 0.054711 0.108701
vt 0.060338 0.110755
vt 0.151875 0.178096
vt 0.151873 0.177893
vt 0.151947 0.178097
vt 0.151525 0.180797
vt 0.150049 0.180481
vt 0.097923 0.205004
vt 0.097938 0.206538
vt 0.097933 0.205994
vt 0.093281 0.203487
vt 0.093266 0.202119
vt 0.093279 0.203283
vt 0.151642 0.179328
vt 0.151441 0.179221
vt 0.151647 0.179263
vt 0.150414 0.179013
vt 0.153686 0.178129
vt 0.095107 0.202152
vt 0.095092 0.203520
vt 0.156532 0.181148
vt 0.156041 0.181068
vt 0.156527 0.180604
vt 0.153700 0.179450
vt 0.154975 0.178720
vt 0.059272 0.108407
vt 0.060814 0.109301
vt 0.154940 0.178792
vt 0.155014 0.179627
vt 0.154304 0.180489
vt 0.153758 0.179469
vt 0.155057 0.179643
vt 0.154297 0.180566
vt 0.151860 0.176728
vt 0.153701 0.176762
vt 0.153685 0.176784
vt 0.151875 0.176745
vt 0.153666 0.178106
vt 0.151888 0.177854
vt 0.151971 0.178082
vt 0.155299 0.180948
vt 0.155315 0.179647
vt 0.155315 0.180933
vt 0.156501 0.179631
vt 0.156015 0.181047
vt 0.156511 0.180573
vt 0.156527 0.180603
vt 0.156041 0.181068
vt 0.154548 0.182457
vt 0.153255 0.181449
vt 0.155117 0.181665
vt 0.153846 0.181497
vt 0.095954 0.207848
vt 0.152027 0.182073
vt 0.151107 0.182745
vt 0.151458 0.181184
vt 0.150384 0.182577
vt 0.150384 0.182577
vt 0.150422 0.179028
vt 0.150063 0.180471
vt 0.151514 0.180782
vt 0.151628 0.179348
vt 0.151400 0.179226
s 0
usemtl texture
f 1/1/1 3/2/1 4/3/1 2/4/1
f 5/1/2 6/4/2 31/5/2 30/6/2
f 2/4/3 4/3/3 8/3/3 6/4/3
f 3/2/4 1/1/4 5/1/4 7/2/4
f 4/3/5 3/2/5 7/2/5 8/3/5
f 1/1/6 2/4/6 6/4/6 5/1/6
f 13/7/7 16/8/7 81/8/7 74/7/7
f 18/9/2 19/10/2 20/11/2 42/12/2 43/13/2 44/14/2 25/15/2 24/16/2 15/17/2 16/18/2 13/19/2 10/20/2 11/21/2 12/22/2 7/2/2 33/23/2 34/24/2 35/25/2 17/26/2
f 7/2/2 12/22/2 9/27/2 10/20/2 13/19/2 14/28/2 15/17/2 8/3/2
f 76/29/8 75/30/8 80/31/8 78/32/8
f 15/17/9 14/28/9 77/28/9 79/17/9
f 16/8/10 15/33/10 79/33/10 81/8/10
f 17/34/11 20/35/11 23/35/11 38/36/11 37/34/11
f 19/37/12 18/38/12 21/38/12 22/37/12
f 20/35/13 19/37/13 22/37/13 23/35/13
f 39/39/14 38/36/14 23/35/14 22/37/14 21/38/14
f 9/40/15 12/41/15 89/41/15 82/40/15
f 83/42/16 88/43/16 86/44/16 84/45/16
f 11/46/17 10/47/17 85/47/17 87/46/17
f 12/41/18 11/46/18 87/46/18 89/48/18
f 25/49/19 26/50/19 69/50/19 66/49/19
f 15/17/2 24/16/2 27/51/2 8/3/2
f 29/52/2 28/53/2 31/5/2 6/4/2 20/11/2 17/26/2 5/1/2 30/6/2
f 17/26/2 35/25/2 32/54/2 33/23/2 7/2/2 5/1/2
f 27/51/20 24/16/20 65/16/20 71/55/20 36/51/20
f 41/56/21 61/57/21 63/58/21
f 34/59/22 33/60/22 93/60/22 95/59/22
f 26/61/23 27/62/23 36/62/23 73/63/23 69/61/23
f 29/64/24 30/65/24 57/65/24 61/66/24 41/64/24
f 97/67/25 99/68/25 40/69/25
f 32/70/26 35/69/26 40/69/26 99/68/26 91/70/26
f 24/16/4 25/15/4 66/15/4 65/16/4
f 28/71/27 29/56/27 41/56/27 63/58/27 55/71/27
f 31/72/28 28/73/28 55/73/28 58/72/28
f 35/69/29 34/59/29 95/59/29 97/67/29 40/69/29
f 36/74/30 71/75/30 73/76/30
f 37/34/31 38/36/31 39/39/31
f 18/38/32 17/34/32 37/34/32 39/39/32 21/38/32
f 33/60/33 32/70/33 91/70/33 93/60/33
f 30/65/34 31/72/34 58/72/34 57/65/34
f 42/77/35 45/78/35 53/78/35 46/77/35
f 25/15/2 44/14/2 45/79/2 42/12/2 20/11/2 6/4/2 8/3/2 27/51/2 26/80/2
f 52/81/2 50/82/2 48/83/2 47/84/2
f 44/85/36 43/86/36 49/86/36 51/85/36
f 45/78/37 44/85/37 51/85/37 53/78/37
f 47/84/38 48/83/38 49/86/38 46/77/38
f 48/83/39 50/82/39 51/85/39 49/86/39
f 50/82/40 52/81/40 53/78/40 51/85/40
f 52/81/41 47/84/41 46/77/41 53/78/41
f 43/86/42 42/77/42 46/77/42 49/86/42
f 57/87/43 58/88/43 59/89/43 56/90/43
f 58/88/44 55/71/44 54/91/44 59/89/44
f 60/92/45 62/93/45 63/58/45 61/57/45
f 62/93/46 54/91/46 55/71/46 63/58/46
f 61/57/47 57/87/47 56/90/47 60/92/47
f 56/90/48 59/89/48 54/91/48 62/93/48 60/92/48
f 65/94/49 66/49/49 67/95/49 64/96/49
f 66/49/50 69/50/50 68/97/50 67/95/50
f 70/98/51 72/99/51 73/76/51 71/75/51
f 72/99/52 68/97/52 69/50/52 73/100/52
f 71/101/53 65/94/53 64/96/53 70/98/53
f 64/96/54 67/95/54 68/97/54 72/99/54 70/98/54
f 75/30/55 76/29/55 77/102/55 74/103/55
f 76/29/56 78/32/56 79/104/56 77/102/56
f 78/32/57 80/31/57 81/105/57 79/104/57
f 80/31/58 75/30/58 74/103/58 81/105/58
f 14/106/59 13/7/59 74/7/59 77/106/59
f 83/42/60 84/45/60 85/107/60 82/108/60
f 84/45/61 86/44/61 87/109/61 85/107/61
f 86/44/62 88/43/62 89/110/62 87/109/62
f 88/43/63 83/42/63 82/108/63 89/111/63
f 10/47/64 9/40/64 82/40/64 85/47/64
f 90/112/65 92/113/65 93/60/65 91/70/65
f 92/113/66 94/114/66 95/59/66 93/60/66
f 96/115/67 98/116/67 99/68/67 97/67/67
f 91/70/68 99/68/68 98/116/68 90/112/68
f 97/67/69 95/59/69 94/114/69 96/115/69
f 90/112/70 98/116/70 96/115/70 94/114/70 92/113/70
