# Blender 4.1.1
# www.blender.org
mtllib ham.mtl
o ham
v -0.068899 0.003606 -0.058024
v -0.070792 0.037268 -0.043651
v -0.070867 0.054883 -0.008797
v -0.070867 0.051322 0.019893
v -0.070892 0.032472 0.046082
v -0.070993 -0.001199 0.057240
v -0.070883 -0.036880 0.046066
v -0.070838 -0.055856 0.017277
v -0.069015 -0.052467 -0.018275
v -0.067156 -0.029752 -0.047038
v -0.048408 0.041861 -0.052661
v -0.047106 0.002432 -0.066883
v -0.048409 0.062433 -0.014049
v -0.048513 0.058351 0.021382
v -0.048616 0.037276 0.053561
v -0.048900 -0.001567 0.066723
v -0.048564 -0.043225 0.053472
v -0.048408 -0.064702 0.020015
v -0.047314 -0.061629 -0.021013
v -0.045657 -0.035926 -0.054205
v -0.014445 0.033069 -0.045207
v -0.014140 0.000599 -0.055789
v -0.015203 0.050775 -0.016525
v -0.015832 0.048420 0.018422
v -0.015730 0.030628 0.046269
v -0.015381 -0.000798 0.056657
v -0.014829 -0.034621 0.045183
v -0.014366 -0.053367 0.016682
v -0.014216 -0.052141 -0.017490
v -0.013563 -0.030721 -0.044648
v 0.010780 0.023374 -0.032712
v 0.011685 0.001612 -0.040234
v 0.009800 0.036759 -0.011232
v 0.009120 0.035756 0.014776
v 0.009372 0.021963 0.035013
v 0.010148 -0.000591 0.041982
v 0.010929 -0.023906 0.033162
v 0.011323 -0.038444 0.012181
v 0.011745 -0.037029 -0.012181
v 0.012126 -0.020783 -0.031620
v 0.034603 0.012590 -0.017850
v 0.035203 0.000516 -0.022198
v 0.034036 0.020045 -0.006109
v 0.033784 0.019721 0.008082
v 0.033955 0.011877 0.019164
v 0.034426 -0.000667 0.022935
v 0.034885 -0.013322 0.018082
v 0.035162 -0.021164 0.006557
v 0.035395 -0.020512 -0.007005
v 0.035494 -0.011991 -0.017881
v -0.070867 0.042835 -0.051680
v -0.069169 0.003201 -0.067268
v -0.070867 0.063723 -0.011011
v -0.070867 0.059967 0.022513
v -0.070878 0.038065 0.053537
v -0.070978 -0.001054 0.066460
v -0.070872 -0.042447 0.053526
v -0.070867 -0.064556 0.020134
v -0.069346 -0.061558 -0.021132
v -0.067322 -0.035352 -0.054517
v -0.068504 0.037256 -0.043667
v -0.066615 0.003596 -0.058020
v -0.068578 0.054773 -0.008847
v -0.068578 0.051135 0.019865
v -0.068618 0.032366 0.046105
v -0.068737 -0.001294 0.057292
v -0.068605 -0.037045 0.046083
v -0.068550 -0.055949 0.017276
v -0.066732 -0.052469 -0.018274
v -0.064878 -0.029761 -0.047035
v 0.034559 0.014579 -0.020601
v 0.035180 0.000658 -0.025587
v 0.033976 0.023134 -0.007086
v 0.033694 0.022741 0.009192
v 0.033898 0.013759 0.021890
v 0.034409 -0.000621 0.026240
v 0.034892 -0.015189 0.020715
v 0.035135 -0.024293 0.007528
v 0.035350 -0.023599 -0.008037
v 0.035482 -0.013744 -0.020546
v 0.032671 0.012602 -0.017840
v 0.033271 0.000576 -0.022207
v 0.032137 0.019989 -0.006052
v 0.031885 0.019645 0.008166
v 0.032056 0.011806 0.019262
v 0.032519 -0.000721 0.023039
v 0.032983 -0.013376 0.018164
v 0.033264 -0.021215 0.006608
v 0.033495 -0.020511 -0.006963
v 0.033579 -0.011941 -0.017866
v 0.032933 0.000264 -0.009552
v 0.032922 -0.006139 -0.006903
v 0.032982 -0.008773 -0.000500
v 0.032914 -0.006141 0.005905
v 0.032891 0.000264 0.008566
v 0.032887 0.006675 0.005911
v 0.032875 0.009334 -0.000500
v 0.032922 0.006667 -0.006903
v 0.075523 -0.008757 -0.000873
v 0.075381 0.009341 -0.000847
v 0.097269 0.000248 -0.009571
v 0.091296 0.000248 -0.013983
v 0.095232 0.000248 -0.013050
v 0.096746 -0.004045 -0.006991
v 0.091697 -0.007271 -0.010344
v 0.095251 -0.006392 -0.009535
v 0.097789 -0.006504 0.000515
v 0.092534 -0.011620 0.000337
v 0.095867 -0.010017 0.000463
v 0.098243 -0.005012 0.004215
v 0.093019 -0.009403 0.008528
v 0.096314 -0.008072 0.007342
v 0.099392 -0.000220 0.006818
v 0.092789 -0.000040 0.012907
v 0.096650 -0.000216 0.011029
v 0.098246 0.004580 0.004233
v 0.093006 0.008967 0.008521
v 0.096292 0.007450 0.007280
v 0.096702 0.006323 -0.003277
v 0.092047 0.011143 -0.003076
v 0.095552 0.009679 -0.003160
v 0.096747 0.004541 -0.006991
v 0.091695 0.007766 -0.010286
v 0.095251 0.006888 -0.009535
v 0.095553 -0.009366 -0.003178
v 0.092144 -0.010790 -0.003128
v 0.096681 -0.006036 -0.003276
v 0.095863 0.009953 0.000447
v 0.092441 0.011688 0.000344
v 0.097810 0.006391 0.000514
v -0.065758 0.000264 -0.012721
v -0.065758 -0.008378 -0.009141
v -0.065758 -0.011957 -0.000499
v -0.065758 -0.008378 0.008143
v -0.065758 0.000264 0.011723
v -0.065758 0.008907 0.008143
v -0.065758 0.012486 -0.000499
v -0.065758 0.008907 -0.009141
v -0.070330 0.000264 -0.006781
v -0.070330 -0.004178 -0.004941
v -0.070330 -0.006018 -0.000499
v -0.070330 -0.004178 0.003943
v -0.070330 0.000264 0.005783
v -0.070330 0.004707 0.003943
v -0.070330 0.006547 -0.000499
v -0.070330 0.004707 -0.004941
v -0.070330 0.000264 -0.012721
v -0.070330 -0.008378 -0.009141
v -0.070330 -0.011957 -0.000499
v -0.070330 -0.008378 0.008143
v -0.070330 0.000264 0.011723
v -0.070330 0.008907 0.008143
v -0.070330 0.012486 -0.000499
v -0.070330 0.008907 -0.009141
v -0.067298 0.000264 -0.006781
v -0.067298 -0.004178 -0.004941
v -0.067298 -0.006018 -0.000499
v -0.067298 -0.004178 0.003943
v -0.067298 0.000264 0.005783
v -0.067298 0.004707 0.003943
v -0.067298 0.006547 -0.000499
v -0.067298 0.004707 -0.004941
v 0.062525 -0.006180 0.005642
v 0.062525 0.000131 0.008458
v 0.062525 0.006299 0.005640
v 0.062525 0.000246 -0.009572
v 0.062525 -0.005334 -0.007047
v 0.062525 0.005826 -0.007023
v 0.062525 0.008213 -0.000738
v 0.062525 -0.007564 -0.000741
vn 0.0008 -0.3924 0.9198
vn 0.2896 -0.2949 0.9106
vn -0.0056 -0.7885 -0.6151
vn -0.0132 -0.3007 0.9536
vn 0.0747 0.9908 0.1127
vn 0.0055 -0.3137 -0.9495
vn -0.0152 -0.8376 0.5461
vn 0.0584 0.8255 0.5614
vn 0.0013 0.3529 -0.9357
vn -0.0049 -0.9973 -0.0737
vn 0.0032 0.3173 0.9483
vn 0.0032 0.8861 -0.4634
vn 0.4688 0.8814 0.0586
vn 0.3168 0.9442 0.0897
vn 0.3027 -0.3004 -0.9045
vn 0.3219 -0.7926 0.5178
vn 0.2849 0.8046 0.5210
vn 0.2997 0.3171 -0.8998
vn 0.2960 -0.9539 -0.0496
vn 0.2660 0.3065 0.9139
vn 0.2887 0.8336 -0.4709
vn 0.2882 -0.7601 -0.5824
vn 0.4890 -0.2948 -0.8210
vn 0.5107 -0.2882 -0.8100
vn 0.5098 -0.7097 0.4862
vn 0.4610 0.7432 0.4848
vn 0.4984 0.2845 -0.8190
vn 0.5028 -0.8637 -0.0341
vn 0.4743 0.2784 0.8352
vn 0.5061 0.7408 -0.4416
vn 0.5149 -0.6722 -0.5320
vn 0.4895 -0.2817 0.8252
vn 0.0190 -0.8452 0.5340
vn 0.5129 -0.7014 0.4949
vn 0.4963 0.7173 0.4891
vn 0.5160 0.3029 -0.8012
vn 0.5022 -0.8640 -0.0376
vn 0.5237 0.2662 0.8092
vn 0.4986 0.7443 -0.4444
vn 0.4770 -0.6844 -0.5515
vn 0.5214 -0.2869 0.8036
vn 0.4800 0.8763 0.0399
vn -0.9987 -0.0509 0.0047
vn -1.0000 -0.0043 0.0012
vn -1.0000 -0.0000 -0.0000
vn -1.0000 0.0009 -0.0000
vn -1.0000 0.0030 0.0007
vn -1.0000 -0.0030 0.0006
vn -1.0000 0.0004 -0.0011
vn -0.9989 0.0202 -0.0418
vn -0.9985 0.0500 -0.0231
vn -0.9985 -0.0369 0.0393
vn -0.9997 -0.0136 -0.0213
vn 0.0207 0.9950 0.0972
vn 0.0017 -0.3150 -0.9491
vn -0.0172 -0.8928 0.4501
vn 0.0013 0.7848 0.6198
vn 0.0316 0.2990 -0.9537
vn -0.0662 -0.9901 -0.1241
vn -0.0001 0.3128 0.9498
vn 0.0490 0.8345 -0.5488
vn -0.0528 -0.8113 -0.5822
vn 0.9990 0.0452 0.0047
vn 0.9991 0.0368 0.0222
vn 0.9995 0.0242 0.0181
vn 0.9996 0.0271 0.0034
vn 0.9993 0.0365 0.0004
vn 0.9995 0.0304 0.0109
vn 0.9998 0.0075 0.0159
vn 0.9998 -0.0118 0.0149
vn 0.9999 -0.0121 0.0004
vn 0.9998 0.0183 -0.0107
vn 0.9993 0.0341 0.0176
vn 0.0197 0.7864 0.6173
vn -0.0557 0.3564 -0.9327
vn 0.0340 -0.9992 -0.0228
vn 0.0108 0.3272 0.9449
vn -0.0424 0.8259 -0.5622
vn 0.0040 -0.8164 -0.5774
vn -0.0063 -0.3404 0.9403
vn -0.0119 0.9987 0.0497
vn -0.0412 -0.2894 -0.9563
vn 0.0285 0.9287 -0.3698
vn -0.1327 0.4298 -0.8931
vn 0.0214 -0.9538 0.2997
vn -0.1318 -0.4151 0.9002
vn 0.0295 -0.9335 -0.3574
vn -0.1333 -0.4253 -0.8952
vn -1.0000 -0.0035 -0.0020
vn 0.2521 -0.4304 -0.8667
vn 0.8730 -0.2676 -0.4077
vn 0.3257 -0.8458 -0.4226
vn 0.9198 -0.3428 -0.1907
vn 0.4239 -0.8794 0.2166
vn 0.8759 -0.4757 0.0800
vn 0.4149 -0.3880 0.8230
vn 0.8556 -0.3075 0.4165
vn 0.4444 0.3958 0.8036
vn 0.8486 0.3175 0.4232
vn 0.4568 0.8491 0.2653
vn 0.8727 0.4728 0.1218
vn 0.3222 0.8561 -0.4042
vn 0.9193 0.3492 -0.1817
vn 0.2457 0.4342 -0.8667
vn 0.8729 0.2676 -0.4079
vn 0.9984 -0.0008 0.0563
vn 0.9817 -0.0006 -0.1905
vn 0.1129 -0.0012 0.9936
vn 0.0618 0.0009 -0.9981
vn 0.0267 0.9413 0.3366
vn 1.0000 -0.0000 -0.0000
vn -0.0000 -0.9239 0.3827
vn -0.0000 0.3827 -0.9239
vn -0.0000 0.9239 0.3827
vn -0.0000 -0.3827 0.9239
vn -0.0000 -0.9239 -0.3827
vn -0.0000 0.9239 -0.3827
vn -0.0000 0.3827 0.9239
vn -0.0000 -0.3827 -0.9239
vn -0.1256 0.4269 0.8955
vn 0.0093 0.3989 0.9169
vn 0.0046 -0.3955 0.9184
vn 0.0027 -0.3964 -0.9181
vn 0.0036 0.3979 -0.9174
vn -0.1163 0.9547 0.2740
vn -0.1122 0.9268 -0.3584
vn -0.1315 -0.9712 0.1989
vn -0.1170 -0.9288 -0.3517
vt 0.174259 0.644962
vt 0.074649 0.656681
vt 0.453045 0.806693
vt 0.453045 0.809012
vt 0.452029 0.808607
vt 0.452029 0.806693
vt 0.452029 0.810520
vt 0.451012 0.810520
vt 0.451012 0.808607
vt 0.457111 0.806693
vt 0.457111 0.808886
vt 0.456095 0.808607
vt 0.456095 0.806693
vt 0.456095 0.810520
vt 0.455078 0.810520
vt 0.455078 0.808607
vt 0.458128 0.806693
vt 0.458128 0.808607
vt 0.459144 0.808607
vt 0.459144 0.810520
vt 0.458128 0.810520
vt 0.457111 0.806612
vt 0.458491 0.806040
vt 0.459063 0.804660
vt 0.458491 0.803280
vt 0.457111 0.802709
vt 0.455731 0.803280
vt 0.455159 0.804660
vt 0.455731 0.806040
vt 0.459079 0.810759
vt 0.458193 0.810759
vt 0.454337 0.806077
vt 0.453133 0.806575
vt 0.453045 0.805761
vt 0.453823 0.805439
vt 0.457111 0.810520
vt 0.458063 0.810759
vt 0.457176 0.810759
vt 0.454960 0.804748
vt 0.454462 0.805952
vt 0.454146 0.804660
vt 0.457046 0.810759
vt 0.456160 0.810759
vt 0.454462 0.803368
vt 0.454960 0.804572
vt 0.453823 0.803882
vt 0.456030 0.810759
vt 0.455143 0.810759
vt 0.453133 0.802745
vt 0.454337 0.803244
vt 0.453045 0.803560
vt 0.454062 0.810520
vt 0.455013 0.810759
vt 0.454127 0.810759
vt 0.451753 0.803244
vt 0.452957 0.802745
vt 0.452267 0.803882
vt 0.453045 0.810520
vt 0.453997 0.810759
vt 0.453110 0.810759
vt 0.451130 0.804572
vt 0.451628 0.803368
vt 0.451944 0.804660
vt 0.452980 0.810759
vt 0.452093 0.810759
vt 0.451628 0.805952
vt 0.451130 0.804748
vt 0.452267 0.805439
vt 0.451964 0.810759
vt 0.451077 0.810759
vt 0.452957 0.806575
vt 0.451753 0.806077
vt 0.453045 0.810080
vt 0.457111 0.810080
vt 0.454062 0.806693
vt 0.454062 0.808607
vt 0.456108 0.804660
vt 0.456402 0.805370
vt 0.457821 0.805370
vt 0.457111 0.805663
vt 0.458114 0.804660
vt 0.457821 0.803951
vt 0.457111 0.803657
vt 0.456402 0.803951
vt 0.455078 0.806693
vt 0.459144 0.806693
vt 0.451012 0.806693
s 0
usemtl texture
f 2/1/1 1/1/1 62/1/1 61/1/1
f 16/1/2 17/1/2 27/1/2 26/1/2
f 59/1/3 60/1/3 20/1/3 19/1/3
f 56/1/4 57/1/4 17/1/4 16/1/4
f 53/1/5 54/1/5 14/1/5 13/1/5
f 60/1/6 52/1/6 12/1/6 20/1/6
f 57/1/7 58/1/7 18/1/7 17/1/7
f 54/1/8 55/1/8 15/1/8 14/1/8
f 52/1/9 51/1/9 11/1/9 12/1/9
f 58/1/10 59/1/10 19/1/10 18/1/10
f 55/1/11 56/1/11 16/1/11 15/1/11
f 51/1/12 53/1/12 13/1/12 11/1/12
f 23/1/13 24/1/13 34/1/13 33/1/13
f 13/1/14 14/1/14 24/1/14 23/1/14
f 20/1/15 12/1/15 22/1/15 30/1/15
f 17/1/16 18/1/16 28/1/16 27/1/16
f 14/1/17 15/1/17 25/1/17 24/1/17
f 12/1/18 11/1/18 21/1/18 22/1/18
f 18/1/19 19/1/19 29/1/19 28/1/19
f 15/1/20 16/1/20 26/1/20 25/1/20
f 11/1/21 13/1/21 23/1/21 21/1/21
f 19/1/22 20/1/22 30/1/22 29/1/22
f 40/1/23 32/1/23 72/1/23 80/1/23
f 30/1/24 22/1/24 32/1/24 40/1/24
f 27/1/25 28/1/25 38/1/25 37/1/25
f 24/1/26 25/1/26 35/1/26 34/1/26
f 22/1/27 21/1/27 31/1/27 32/1/27
f 28/1/28 29/1/28 39/1/28 38/1/28
f 25/1/29 26/1/29 36/1/29 35/1/29
f 21/1/30 23/1/30 33/1/30 31/1/30
f 29/1/31 30/1/31 40/1/31 39/1/31
f 26/1/32 27/1/32 37/1/32 36/1/32
f 41/1/33 43/1/33 83/1/33 81/1/33
f 37/1/34 38/1/34 78/1/34 77/1/34
f 34/1/35 35/1/35 75/1/35 74/1/35
f 32/1/36 31/1/36 71/1/36 72/1/36
f 38/1/37 39/1/37 79/1/37 78/1/37
f 35/1/38 36/1/38 76/1/38 75/1/38
f 31/1/39 33/1/39 73/1/39 71/1/39
f 39/1/40 40/1/40 80/1/40 79/1/40
f 36/1/41 37/1/41 77/1/41 76/1/41
f 33/1/42 34/1/42 74/1/42 73/1/42
f 1/1/43 2/1/43 51/1/43 52/1/43
f 2/1/44 3/1/44 53/1/44 51/1/44
f 3/1/45 4/1/45 54/1/45 53/1/45
f 4/1/46 5/1/46 55/1/46 54/1/46
f 5/1/47 6/1/47 56/1/47 55/1/47
f 6/1/48 7/1/48 57/1/48 56/1/48
f 7/1/49 8/1/49 58/1/49 57/1/49
f 8/1/50 9/1/50 59/1/50 58/1/50
f 9/1/51 10/1/51 60/1/51 59/1/51
f 10/1/52 1/1/52 52/1/52 60/1/52
f 61/2/53 62/2/53 70/2/53 69/2/53 68/2/53 67/2/53 66/2/53 65/2/53 64/2/53 63/2/53
f 9/1/54 8/1/54 68/1/54 69/1/54
f 6/1/55 5/1/55 65/1/55 66/1/55
f 3/1/56 2/1/56 61/1/56 63/1/56
f 10/1/57 9/1/57 69/1/57 70/1/57
f 7/1/58 6/1/58 66/1/58 67/1/58
f 4/1/59 3/1/59 63/1/59 64/1/59
f 1/1/60 10/1/60 70/1/60 62/1/60
f 8/1/61 7/1/61 67/1/61 68/1/61
f 5/1/62 4/1/62 64/1/62 65/1/62
f 41/1/63 42/1/63 72/1/63 71/1/63
f 43/1/64 41/1/64 71/1/64 73/1/64
f 44/1/65 43/1/65 73/1/65 74/1/65
f 45/1/66 44/1/66 74/1/66 75/1/66
f 46/1/67 45/1/67 75/1/67 76/1/67
f 47/1/68 46/1/68 76/1/68 77/1/68
f 48/1/69 47/1/69 77/1/69 78/1/69
f 49/1/70 48/1/70 78/1/70 79/1/70
f 50/1/71 49/1/71 79/1/71 80/1/71
f 42/1/72 50/1/72 80/1/72 72/1/72
f 81/1/73 83/1/73 84/1/73 85/1/73 86/1/73 87/1/73 88/1/73 89/1/73 90/1/73 82/1/73
f 49/1/74 50/1/74 90/1/74 89/1/74
f 46/1/75 47/1/75 87/1/75 86/1/75
f 43/1/76 44/1/76 84/1/76 83/1/76
f 50/1/77 42/1/77 82/1/77 90/1/77
f 47/1/78 48/1/78 88/1/78 87/1/78
f 44/1/79 45/1/79 85/1/79 84/1/79
f 42/1/80 41/1/80 81/1/80 82/1/80
f 48/1/81 49/1/81 89/1/81 88/1/81
f 45/1/82 46/1/82 86/1/82 85/1/82
f 97/3/83 169/4/83 168/5/83 98/6/83
f 168/5/84 123/7/84 102/8/84 166/9/84
f 93/10/85 170/11/85 163/12/85 94/13/85
f 163/12/86 111/14/86 114/15/86 164/16/86
f 92/17/87 167/18/87 170/11/87 93/10/87
f 166/19/88 102/20/88 105/21/88 167/18/88
f 91/22/89 92/23/89 93/24/89 94/25/89 95/26/89 96/27/89 97/28/89 98/29/89
f 105/21/90 102/20/90 103/30/90 106/31/90
f 106/32/91 103/33/91 101/34/91 104/35/91
f 126/36/92 105/21/92 106/37/92 125/38/92
f 125/39/93 106/40/93 104/35/93 127/41/93
f 111/14/94 108/36/94 109/42/94 112/43/94
f 112/44/95 109/45/95 107/41/95 110/46/95
f 114/15/96 111/14/96 112/47/96 115/48/96
f 115/49/97 112/50/97 110/46/97 113/51/97
f 117/52/98 114/15/98 115/53/98 118/54/98
f 118/55/99 115/56/99 113/51/99 116/57/99
f 129/58/100 117/52/100 118/59/100 128/60/100
f 128/61/101 118/62/101 116/57/101 130/63/101
f 123/7/102 120/58/102 121/64/102 124/65/102
f 124/66/103 121/67/103 119/63/103 122/68/103
f 102/8/104 123/7/104 124/69/104 103/70/104
f 103/71/105 124/72/105 122/68/105 101/34/105
f 104/35/106 101/34/106 122/68/106 119/63/106 127/41/106
f 107/41/107 130/63/107 116/57/107 113/51/107 110/46/107
f 126/36/108 125/39/108 127/41/108 119/63/108 121/64/108 120/58/108 100/73/108 99/74/108
f 129/58/109 128/61/109 130/63/109 107/41/109 109/42/109 108/36/109 99/74/109 100/73/109
f 96/75/110 165/76/110 169/4/110 97/3/110
f 131/22/111 138/29/111 137/28/111 136/27/111 135/26/111 134/25/111 133/24/111 132/23/111
f 145/77/112 146/78/112 162/78/112 161/77/112
f 138/29/113 131/22/113 147/22/113 154/29/113
f 136/27/114 137/28/114 153/28/114 152/27/114
f 134/25/115 135/26/115 151/26/115 150/25/115
f 132/23/116 133/24/116 149/24/116 148/23/116
f 137/28/117 138/29/117 154/29/117 153/28/117
f 135/26/118 136/27/118 152/27/118 151/26/118
f 133/24/112 134/25/112 150/25/112 149/24/112
f 131/22/119 132/23/119 148/23/119 147/22/119
f 140/79/45 139/80/45 147/22/45 148/23/45
f 141/81/45 140/79/45 148/23/45 149/24/45
f 142/82/45 141/81/45 149/24/45 150/25/45
f 143/83/45 142/82/45 150/25/45 151/26/45
f 144/84/45 143/83/45 151/26/45 152/27/45
f 145/77/45 144/84/45 152/27/45 153/28/45
f 146/78/45 145/77/45 153/28/45 154/29/45
f 139/80/45 146/78/45 154/29/45 147/22/45
f 155/80/45 156/79/45 157/81/45 158/82/45 159/83/45 160/84/45 161/77/45 162/78/45
f 143/83/119 144/84/119 160/84/119 159/83/119
f 141/81/117 142/82/117 158/82/117 157/81/117
f 139/80/118 140/79/118 156/79/118 155/80/118
f 146/78/115 139/80/115 155/80/115 162/78/115
f 144/84/116 145/77/116 161/77/116 160/84/116
f 142/82/113 143/83/113 159/83/113 158/82/113
f 140/79/114 141/81/114 157/81/114 156/79/114
f 164/16/120 114/15/120 117/52/120 165/76/120
f 95/85/121 164/16/121 165/76/121 96/75/121
f 94/13/122 163/12/122 164/16/122 95/85/122
f 91/86/123 166/19/123 167/18/123 92/17/123
f 98/6/124 168/5/124 166/9/124 91/87/124
f 169/4/125 165/76/125 117/52/125 129/58/125 100/73/125
f 168/5/126 169/4/126 100/73/126 120/58/126 123/7/126
f 163/12/127 170/11/127 99/74/127 108/36/127 111/14/127
f 170/11/128 167/18/128 105/21/128 126/36/128 99/74/128
