# Blender 4.1.1
# www.blender.org
mtllib pillar_1.mtl
o pillar_1
v -0.203356 0.000000 0.203356
v 0.203356 0.000000 0.203356
v -0.203356 0.000000 -0.203356
v 0.203356 0.000000 -0.203356
v -0.203356 0.154759 0.203356
v 0.203356 0.154759 0.203356
v -0.203356 0.154759 -0.203356
v 0.203356 0.154759 -0.203356
v -0.151924 0.246100 0.151924
v 0.151924 0.246100 0.151924
v -0.151924 0.246100 -0.151924
v 0.151924 0.246100 -0.151924
v -0.151924 1.503652 0.151924
v 0.151924 1.503652 0.151924
v -0.151924 1.503652 -0.151924
v 0.151924 1.503652 -0.151924
v -0.184385 1.540531 0.184385
v 0.184385 1.540531 0.184385
v -0.184385 1.540531 -0.184385
v 0.184385 1.540531 -0.184385
v -0.184385 1.649634 0.184385
v 0.184385 1.649634 0.184385
v -0.184385 1.649634 -0.184385
v 0.184385 1.649634 -0.184385
v -0.140871 1.104387 -0.140871
v -0.140871 1.125300 -0.140871
v -0.140871 1.125300 0.140871
v -0.140871 1.104387 0.140871
v -0.140871 0.624452 -0.140871
v -0.140871 0.645365 -0.140871
v -0.140871 0.645365 0.140871
v -0.140871 0.624452 0.140871
v -0.151924 0.645365 -0.151924
v -0.151924 0.624452 -0.151924
v -0.151924 1.125300 -0.151924
v -0.151924 1.104387 -0.151924
v 0.151924 1.104387 -0.151924
v 0.151924 1.125300 -0.151924
v 0.151924 0.624452 -0.151924
v 0.151924 0.645365 -0.151924
v 0.151924 0.645365 0.151924
v 0.151924 0.624452 0.151924
v 0.151924 1.125300 0.151924
v 0.151924 1.104387 0.151924
v -0.151924 1.104387 0.151924
v -0.151924 1.125300 0.151924
v -0.151924 0.624452 0.151924
v -0.151924 0.645365 0.151924
v 0.140871 0.624452 -0.140871
v 0.140871 0.645365 -0.140871
v 0.140871 0.645365 0.140871
v 0.140871 0.624452 0.140871
v 0.140871 1.104387 -0.140871
v 0.140871 1.125300 -0.140871
v 0.140871 1.125300 0.140871
v 0.140871 1.104387 0.140871
vn -0.0000 -1.0000 -0.0000
vn 0.8714 0.4906 -0.0000
vn 1.0000 -0.0000 -0.0000
vn -1.0000 -0.0000 -0.0000
vn -0.0000 -0.0000 -1.0000
vn -0.0000 -0.0000 1.0000
vn -0.8714 0.4906 -0.0000
vn -0.0000 0.4906 -0.8714
vn -0.0000 0.4906 0.8714
vn 0.7506 -0.6607 -0.0000
vn -0.7506 -0.6607 -0.0000
vn -0.0000 -0.6607 -0.7506
vn -0.0000 -0.6607 0.7506
vn -0.0000 1.0000 -0.0000
vt 0.181096 0.213463
vt 0.177207 0.213463
vt 0.177207 0.209574
vt 0.181096 0.209574
vt 0.173499 0.214248
vt 0.172849 0.220718
vt 0.171623 0.219371
vt 0.171897 0.215726
vt 0.177202 0.209574
vt 0.177178 0.224285
vt 0.162654 0.225375
vt 0.162654 0.210641
vt 0.166995 0.214219
vt 0.166352 0.220696
vt 0.048417 0.223347
vt 0.048418 0.223348
vt 0.048421 0.223351
vt 0.048421 0.223350
vt 0.168228 0.215572
vt 0.167956 0.219219
vt 0.169943 0.217488
vt 0.169943 0.217489
vt 0.169946 0.217491
vt 0.169944 0.217489
vt 0.048407 0.223308
vt 0.048377 0.223336
vt 0.048371 0.223334
vt 0.048405 0.223302
vt 0.048436 0.223340
vt 0.048408 0.223366
vt 0.048412 0.223343
vt 0.048412 0.223342
vt 0.048417 0.223347
vt 0.048420 0.223351
vt 0.169944 0.217490
vt 0.169945 0.217491
vt 0.169949 0.217494
vt 0.169943 0.217488
vt 0.169942 0.217488
vt 0.169943 0.217489
vt 0.180733 0.216994
vt 0.177207 0.216994
vt 0.177207 0.213468
vt 0.180733 0.213468
vt 0.169946 0.217490
vt 0.169945 0.217490
vt 0.048381 0.223338
vt 0.048412 0.223343
vt 0.048417 0.223347
vt 0.048420 0.223350
vt 0.046325 0.221010
vt 0.050808 0.221198
vt 0.048439 0.223337
vt 0.048403 0.223298
vt 0.050473 0.225651
vt 0.048403 0.223370
vt 0.048409 0.223312
vt 0.048412 0.223342
vt 0.045994 0.225465
vt 0.048367 0.223332
vt 0.048413 0.223344
vt 0.048414 0.223344
vt 0.048414 0.223344
vt 0.048416 0.223346
vt 0.048415 0.223346
vt 0.048413 0.223344
vt 0.048405 0.223369
vt 0.048416 0.223345
vt 0.048407 0.223367
vt 0.048415 0.223345
vt 0.048436 0.223339
vt 0.048438 0.223338
s 0
usemtl texture
f 1/1/1 3/2/1 4/3/1 2/4/1
f 6/5/2 8/6/2 12/7/2 10/8/2
f 2/9/3 4/10/3 8/6/3 6/5/3
f 3/11/4 1/12/4 5/13/4 7/14/4
f 4/10/5 3/11/5 7/14/5 8/6/5
f 1/12/6 2/9/6 6/5/6 5/13/6
f 43/15/3 38/16/3 16/17/3 14/18/3
f 7/14/7 5/13/7 9/19/7 11/20/7
f 8/6/8 7/14/8 11/20/8 12/7/8
f 5/13/9 6/5/9 10/8/9 9/19/9
f 14/21/10 16/22/10 20/23/10 18/24/10
f 31/25/4 30/26/4 29/27/4 32/28/4
f 41/29/3 40/30/3 37/31/3 44/32/3
f 38/16/5 35/33/5 15/34/5 16/17/5
f 20/23/5 19/35/5 23/36/5 24/37/5
f 15/38/11 13/39/11 17/40/11 19/35/11
f 16/22/12 15/38/12 19/35/12 20/23/12
f 13/39/13 14/21/13 18/24/13 17/40/13
f 21/41/14 22/42/14 24/43/14 23/44/14
f 17/40/6 18/24/6 22/45/6 21/46/6
f 18/24/3 20/23/3 24/37/3 22/45/3
f 19/35/4 17/40/4 21/46/4 23/36/4
f 40/30/5 33/47/5 36/48/5 37/31/5
f 35/33/4 46/49/4 13/50/4 15/34/4
f 9/51/6 10/52/6 42/53/6 47/54/6
f 10/52/3 12/55/3 39/56/3 42/53/3
f 48/57/6 41/29/6 44/32/6 45/58/6
f 46/49/6 43/15/6 14/18/6 13/50/6
f 11/59/4 9/51/4 47/54/4 34/60/4
f 33/47/4 48/57/4 45/58/4 36/48/4
f 37/31/14 36/48/14 25/61/14 53/62/14
f 44/32/14 37/31/14 53/62/14 56/63/14
f 35/33/1 38/16/1 54/64/1 26/65/1
f 36/48/14 45/58/14 28/66/14 25/61/14
f 39/56/14 34/60/14 29/27/14 49/67/14
f 38/16/1 43/15/1 55/68/1 54/64/1
f 33/47/1 40/30/1 50/69/1 30/26/1
f 46/49/1 35/33/1 26/65/1 27/70/1
f 12/55/5 11/59/5 34/60/5 39/56/5
f 27/70/4 26/65/4 25/61/4 28/66/4
f 50/69/3 51/71/3 52/72/3 49/67/3
f 54/64/3 55/68/3 56/63/3 53/62/3
f 51/71/6 31/25/6 32/28/6 52/72/6
f 55/68/6 27/70/6 28/66/6 56/63/6
f 30/26/5 50/69/5 49/67/5 29/27/5
f 26/65/5 54/64/5 53/62/5 25/61/5
f 48/57/1 33/47/1 30/26/1 31/25/1
f 41/29/1 48/57/1 31/25/1 51/71/1
f 40/30/1 41/29/1 51/71/1 50/69/1
f 47/54/14 42/53/14 52/72/14 32/28/14
f 34/60/14 47/54/14 32/28/14 29/27/14
f 43/15/1 46/49/1 27/70/1 55/68/1
f 42/53/14 39/56/14 49/67/14 52/72/14
f 45/58/14 44/32/14 56/63/14 28/66/14
