# Blender 4.1.1
# www.blender.org
mtllib pillar_2.mtl
o pillar_2
v -0.000000 0.000000 -0.324000
v -0.229103 0.000000 -0.229103
v -0.324000 0.000000 0.000000
v -0.229103 0.000000 0.229103
v -0.000000 0.000000 0.324000
v 0.229103 0.000000 0.229103
v 0.324000 0.000000 0.000000
v 0.229103 0.000000 -0.229103
v -0.229103 0.109274 -0.229103
v -0.000000 0.109274 -0.324000
v -0.324000 0.109274 0.000000
v -0.229103 0.109274 0.229103
v -0.000000 0.109274 0.324000
v 0.229103 0.109274 0.229103
v 0.324000 0.109274 0.000000
v 0.229103 0.109274 -0.229103
v -0.177170 0.200310 -0.177170
v -0.000000 0.200310 -0.250556
v -0.250556 0.200310 0.000000
v -0.177170 0.200310 0.177170
v -0.000000 0.200310 0.250556
v 0.177170 0.200310 0.177170
v 0.250556 0.200310 0.000000
v 0.177170 0.200310 -0.177170
v -0.177170 1.208016 -0.177170
v -0.000000 1.208016 -0.250556
v -0.250556 1.208016 0.000000
v -0.177170 1.208016 0.177170
v -0.000000 1.208016 0.250556
v 0.177170 1.208016 0.177170
v 0.250556 1.208016 0.000000
v 0.177170 1.208016 -0.177170
v -0.224430 1.309214 -0.224430
v -0.000000 1.309214 -0.317391
v -0.317391 1.309214 0.000000
v -0.224430 1.309214 0.224430
v -0.000000 1.309214 0.317391
v 0.224430 1.309214 0.224430
v 0.317391 1.309214 0.000000
v 0.224430 1.309214 -0.224430
v -0.224430 1.522709 -0.224430
v -0.000000 1.522709 -0.317391
v -0.317391 1.522709 0.000000
v -0.224430 1.522709 0.224430
v -0.000000 1.522709 0.317391
v 0.224430 1.522709 0.224430
v 0.317391 1.522709 0.000000
v 0.224430 1.522709 -0.224430
v -0.166768 0.712769 0.166768
v -0.166768 0.695557 0.166768
v -0.235845 0.443631 0.000000
v -0.235845 0.460843 0.000000
v -0.166768 0.460843 0.166768
v -0.166768 0.443631 0.166768
v -0.166768 0.964696 -0.166768
v -0.166768 0.947483 -0.166768
v -0.166768 0.712769 -0.166768
v -0.166768 0.695557 -0.166768
v -0.166768 0.460843 -0.166768
v -0.166768 0.443631 -0.166768
v 0.166768 0.947483 -0.166768
v 0.166768 0.964696 -0.166768
v -0.000000 0.964696 -0.235845
v -0.000000 0.947483 -0.235845
v 0.166768 0.695557 -0.166768
v 0.166768 0.712769 -0.166768
v -0.000000 0.712769 -0.235845
v -0.000000 0.695557 -0.235845
v 0.166768 0.443631 -0.166768
v 0.166768 0.460843 -0.166768
v -0.000000 0.460843 -0.235845
v -0.000000 0.443631 -0.235845
v 0.250556 0.460843 0.000000
v 0.250556 0.443631 0.000000
v 0.250556 0.712769 0.000000
v 0.250556 0.695557 0.000000
v 0.250556 0.964696 0.000000
v 0.250556 0.947483 0.000000
v 0.177170 0.947483 0.177170
v 0.177170 0.964696 0.177170
v 0.177170 0.695557 0.177170
v 0.177170 0.712769 0.177170
v 0.177170 0.443631 0.177170
v 0.177170 0.460843 0.177170
v -0.000000 0.460843 0.250556
v -0.000000 0.443631 0.250556
v -0.000000 0.712769 0.250556
v -0.000000 0.695557 0.250556
v -0.000000 0.964696 0.250556
v -0.000000 0.947483 0.250556
v -0.177170 0.947483 0.177170
v -0.177170 0.964696 0.177170
v -0.177170 0.695557 0.177170
v -0.177170 0.712769 0.177170
v -0.177170 0.443631 0.177170
v -0.177170 0.460843 0.177170
v -0.250556 0.460843 0.000000
v -0.250556 0.443631 0.000000
v -0.250556 0.712769 0.000000
v -0.250556 0.695557 0.000000
v -0.250556 0.964696 0.000000
v -0.250556 0.947483 0.000000
v -0.177170 0.947483 -0.177170
v -0.177170 0.964696 -0.177170
v -0.177170 0.695557 -0.177170
v -0.177170 0.712769 -0.177170
v -0.177170 0.443631 -0.177170
v -0.177170 0.460843 -0.177170
v 0.177170 0.460843 -0.177170
v 0.177170 0.443631 -0.177170
v 0.177170 0.712769 -0.177170
v 0.177170 0.695557 -0.177170
v 0.177170 0.964696 -0.177170
v 0.177170 0.947483 -0.177170
v -0.000000 0.947483 -0.250556
v -0.000000 0.964696 -0.250556
v -0.000000 0.695557 -0.250556
v -0.000000 0.712769 -0.250556
v -0.000000 0.443631 -0.250556
v -0.000000 0.460843 -0.250556
v -0.235845 0.712769 0.000000
v -0.235845 0.695557 0.000000
v -0.166768 0.947483 0.166768
v -0.166768 0.964696 0.166768
v -0.235845 0.964696 0.000000
v -0.235845 0.947483 0.000000
v 0.166768 0.443631 0.166768
v 0.166768 0.460843 0.166768
v -0.000000 0.460843 0.235845
v -0.000000 0.443631 0.235845
v 0.166768 0.695557 0.166768
v 0.166768 0.712769 0.166768
v -0.000000 0.712769 0.235845
v -0.000000 0.695557 0.235845
v 0.166768 0.947483 0.166768
v 0.166768 0.964696 0.166768
v -0.000000 0.964696 0.235845
v -0.000000 0.947483 0.235845
v 0.235846 0.460843 0.000000
v 0.235846 0.443631 0.000000
v 0.235846 0.712769 0.000000
v 0.235846 0.695557 0.000000
v 0.235846 0.964696 0.000000
v 0.235846 0.947483 0.000000
vn -0.0000 -1.0000 -0.0000
vn 0.7408 0.5976 -0.3068
vn 0.3827 -0.0000 -0.9239
vn 0.9239 -0.0000 0.3827
vn -0.3827 -0.0000 0.9239
vn -0.9239 -0.0000 -0.3827
vn 0.9239 -0.0000 -0.3827
vn 0.3827 -0.0000 0.9239
vn -0.9239 -0.0000 0.3827
vn -0.3827 -0.0000 -0.9239
vn 0.3068 0.5976 0.7408
vn -0.7408 0.5976 0.3068
vn -0.3068 0.5976 -0.7408
vn 0.3068 0.5976 -0.7408
vn 0.7408 0.5976 0.3068
vn -0.3068 0.5976 0.7408
vn -0.7408 0.5976 -0.3068
vn -0.3267 -0.5209 -0.7887
vn 0.3267 -0.5209 -0.7887
vn 0.7887 -0.5209 0.3267
vn -0.3267 -0.5209 0.7887
vn -0.7887 -0.5209 -0.3267
vn 0.7887 -0.5209 -0.3267
vn 0.3267 -0.5209 0.7887
vn -0.7887 -0.5209 0.3267
vn -0.0000 1.0000 -0.0000
vt 0.196714 0.221311
vt 0.197605 0.220419
vt 0.198866 0.220419
vt 0.199757 0.221311
vt 0.199757 0.222571
vt 0.198866 0.223463
vt 0.197605 0.223463
vt 0.196714 0.222571
vt 0.188448 0.226706
vt 0.188520 0.223953
vt 0.189631 0.224443
vt 0.189581 0.226245
vt 0.186961 0.223376
vt 0.189795 0.220419
vt 0.190495 0.221967
vt 0.189763 0.230183
vt 0.186961 0.227380
vt 0.190319 0.228677
vt 0.196436 0.227553
vt 0.193618 0.230128
vt 0.192995 0.228681
vt 0.194976 0.226931
vt 0.193979 0.220533
vt 0.196711 0.223620
vt 0.195184 0.224235
vt 0.193331 0.222103
vt 0.053116 0.227410
vt 0.053079 0.227400
vt 0.053100 0.227373
vt 0.053111 0.227376
vt 0.190820 0.227547
vt 0.192584 0.227579
vt 0.193846 0.226390
vt 0.194060 0.224619
vt 0.192811 0.223249
vt 0.190948 0.223169
vt 0.191781 0.225391
vt 0.191792 0.225396
vt 0.191788 0.225401
vt 0.191781 0.225398
vt 0.053158 0.227356
vt 0.053148 0.227391
vt 0.053121 0.227371
vt 0.053124 0.227360
vt 0.053104 0.227312
vt 0.053141 0.227323
vt 0.053120 0.227349
vt 0.053109 0.227344
vt 0.053060 0.227367
vt 0.053094 0.227362
vt 0.053148 0.227533
vt 0.053014 0.227509
vt 0.053072 0.227408
vt 0.053117 0.227420
vt 0.053275 0.227324
vt 0.053260 0.227453
vt 0.053157 0.227397
vt 0.053168 0.227355
vt 0.053074 0.227192
vt 0.053203 0.227220
vt 0.053148 0.227315
vt 0.053103 0.227301
vt 0.052922 0.226738
vt 0.052532 0.227053
vt 0.052489 0.227030
vt 0.052909 0.226691
vt 0.191772 0.225408
vt 0.191775 0.225402
vt 0.191779 0.225405
vt 0.191777 0.225408
vt 0.191770 0.225397
vt 0.191771 0.225419
vt 0.191766 0.225409
vt 0.191776 0.225415
vt 0.191793 0.225418
vt 0.191783 0.225423
vt 0.191782 0.225417
vt 0.191789 0.225414
vt 0.191796 0.225407
vt 0.191791 0.225407
vt 0.199695 0.224339
vt 0.199695 0.225574
vt 0.198822 0.226448
vt 0.197587 0.226448
vt 0.196714 0.225574
vt 0.196714 0.224339
vt 0.197587 0.223466
vt 0.198822 0.223466
vt 0.191779 0.225411
vt 0.191782 0.225412
vt 0.191785 0.225411
vt 0.191786 0.225408
vt 0.191785 0.225405
vt 0.191782 0.225403
vt 0.052567 0.227071
vt 0.052934 0.226776
vt 0.053067 0.227155
vt 0.052933 0.227245
vt 0.052964 0.227266
vt 0.053062 0.227323
vt 0.053071 0.227330
vt 0.053098 0.227350
vt 0.050959 0.226396
vt 0.052276 0.225123
vt 0.052898 0.226648
vt 0.052451 0.227007
vt 0.054140 0.225202
vt 0.053471 0.226719
vt 0.053403 0.226836
vt 0.053224 0.227189
vt 0.055388 0.226572
vt 0.053802 0.227162
vt 0.055174 0.228343
vt 0.053779 0.227714
vt 0.053691 0.227196
vt 0.053656 0.227653
vt 0.053294 0.227473
vt 0.053306 0.227317
vt 0.053912 0.229532
vt 0.053330 0.228085
vt 0.052148 0.229501
vt 0.052755 0.228025
vt 0.053291 0.227956
vt 0.052819 0.227908
vt 0.052993 0.227541
vt 0.053157 0.227571
vt 0.052519 0.227541
vt 0.052901 0.227405
vt 0.052938 0.227397
vt 0.053050 0.227368
vt 0.050909 0.228198
vt 0.052391 0.227578
vt 0.053766 0.227173
vt 0.053448 0.226756
vt 0.053282 0.227466
vt 0.053296 0.227319
vt 0.053008 0.227518
vt 0.052927 0.227400
vt 0.053424 0.226797
vt 0.053722 0.227187
vt 0.052435 0.227567
vt 0.052778 0.227987
vt 0.053001 0.227530
vt 0.053154 0.227558
vt 0.053065 0.227326
vt 0.053053 0.227368
vt 0.053284 0.227322
vt 0.053270 0.227458
vt 0.052801 0.227944
vt 0.052481 0.227553
vt 0.053117 0.227417
vt 0.053154 0.227395
vt 0.053151 0.227544
vt 0.053103 0.227304
vt 0.053057 0.227367
vt 0.053068 0.227328
vt 0.053735 0.227691
vt 0.053151 0.227393
vt 0.053116 0.227413
vt 0.052943 0.227252
vt 0.052914 0.227403
vt 0.053318 0.228041
vt 0.053104 0.227308
vt 0.053692 0.227670
vt 0.053071 0.227181
vt 0.052954 0.227260
vt 0.053069 0.227168
vt 0.053210 0.227209
vt 0.053217 0.227198
vt 0.053143 0.227320
vt 0.053146 0.227317
vt 0.053161 0.227355
vt 0.053165 0.227355
vt 0.053304 0.227994
vt 0.053077 0.227402
vt 0.053075 0.227405
s 0
usemtl texture
f 2/1/1 1/2/1 8/3/1 7/4/1 6/5/1 5/6/1 4/7/1 3/8/1
f 15/9/2 16/10/2 24/11/2 23/12/2
f 8/13/3 1/14/3 10/15/3 16/10/3
f 6/16/4 7/17/4 15/9/4 14/18/4
f 4/19/5 5/20/5 13/21/5 12/22/5
f 2/23/6 3/24/6 11/25/6 9/26/6
f 7/17/7 8/13/7 16/10/7 15/9/7
f 5/20/8 6/16/8 14/18/8 13/21/8
f 3/24/9 4/19/9 12/22/9 11/25/9
f 1/14/10 2/23/10 9/26/10 10/15/10
f 89/27/8 80/28/8 30/29/8 29/30/8
f 13/21/11 14/18/11 22/31/11 21/32/11
f 11/25/12 12/22/12 20/33/12 19/34/12
f 10/15/13 9/26/13 17/35/13 18/36/13
f 16/10/14 10/15/14 18/36/14 24/11/14
f 14/18/15 15/9/15 23/12/15 22/31/15
f 12/22/16 13/21/16 21/32/16 20/33/16
f 9/26/17 11/25/17 19/34/17 17/35/17
f 26/37/18 25/38/18 33/39/18 34/40/18
f 101/41/9 92/42/9 28/43/9 27/44/9
f 116/45/10 104/46/10 25/47/10 26/48/10
f 80/28/4 77/49/4 31/50/4 30/29/4
f 87/51/8 82/52/8 79/53/8 90/54/8
f 99/55/9 94/56/9 91/57/9 102/58/9
f 118/59/10 106/60/10 103/61/10 115/62/10
f 71/63/3 70/64/3 69/65/3 72/66/3
f 39/67/7 40/68/7 48/69/7 47/70/7
f 32/71/19 26/37/19 34/40/19 40/68/19
f 30/72/20 31/73/20 39/67/20 38/74/20
f 28/75/21 29/76/21 37/77/21 36/78/21
f 25/38/22 27/79/22 35/80/22 33/39/22
f 31/73/23 32/71/23 40/68/23 39/67/23
f 29/76/24 30/72/24 38/74/24 37/77/24
f 27/79/25 28/75/25 36/78/25 35/80/25
f 41/81/26 43/82/26 44/83/26 45/84/26 46/85/26 47/86/26 48/87/26 42/88/26
f 37/77/8 38/74/8 46/89/8 45/90/8
f 35/80/9 36/78/9 44/91/9 43/92/9
f 34/40/10 33/39/10 41/93/10 42/94/10
f 40/68/3 34/40/3 42/94/3 48/69/3
f 38/74/4 39/67/4 47/70/4 46/89/4
f 36/78/5 37/77/5 45/90/5 44/91/5
f 33/39/6 35/80/6 43/92/6 41/93/6
f 109/95/3 120/96/3 117/97/3 112/98/3
f 111/99/3 118/59/3 115/62/3 114/100/3
f 113/101/3 116/45/3 26/48/3 32/102/3
f 24/103/3 18/104/3 119/105/3 110/106/3
f 18/104/10 17/107/10 107/108/10 119/105/10
f 120/96/10 108/109/10 105/110/10 117/97/10
f 17/107/6 19/111/6 98/112/6 107/108/6
f 19/111/9 20/113/9 95/114/9 98/112/9
f 97/115/9 96/116/9 93/117/9 100/118/9
f 20/113/5 21/119/5 86/120/5 95/114/5
f 21/119/8 22/121/8 83/122/8 86/120/8
f 85/123/8 84/124/8 81/125/8 88/126/8
f 84/124/4 73/127/4 76/128/4 81/125/4
f 82/52/4 75/129/4 78/130/4 79/53/4
f 77/49/7 113/101/7 32/102/7 31/50/7
f 108/109/6 97/115/6 100/118/6 105/110/6
f 106/60/6 99/55/6 102/58/6 103/61/6
f 104/46/6 101/41/6 27/44/6 25/47/6
f 96/116/5 85/123/5 88/126/5 93/117/5
f 94/56/5 87/51/5 90/54/5 91/57/5
f 92/42/5 89/27/5 29/30/5 28/43/5
f 23/131/7 24/103/7 110/106/7 74/132/7
f 73/127/7 109/95/7 112/98/7 76/128/7
f 75/129/7 111/99/7 114/100/7 78/130/7
f 107/108/26 98/112/26 51/133/26 60/134/26
f 100/118/26 93/117/26 50/135/26 122/136/26
f 120/96/1 109/95/1 70/64/1 71/63/1
f 75/129/1 82/52/1 132/137/1 141/138/1
f 119/105/26 107/108/26 60/134/26 72/66/26
f 97/115/1 108/109/1 59/139/1 52/140/1
f 83/122/26 74/132/26 140/141/26 127/142/26
f 88/126/26 81/125/26 131/143/26 134/144/26
f 108/109/1 120/96/1 71/63/1 59/139/1
f 78/130/26 114/100/26 61/145/26 144/146/26
f 94/56/1 99/55/1 121/147/1 49/148/1
f 73/127/1 84/124/1 128/149/1 139/150/1
f 91/57/26 90/54/26 138/151/26 123/152/26
f 82/52/1 87/51/1 133/153/1 132/137/1
f 114/100/26 115/62/26 64/154/26 61/145/26
f 113/101/1 77/49/1 143/155/1 62/156/1
f 98/112/26 95/114/26 54/157/26 51/133/26
f 89/27/1 92/42/1 124/158/1 137/159/1
f 76/128/26 112/98/26 65/160/26 142/161/26
f 93/117/26 88/126/26 134/144/26 50/135/26
f 86/120/26 83/122/26 127/142/26 130/162/26
f 116/45/1 113/101/1 62/156/1 63/163/1
f 96/116/1 97/115/1 52/140/1 53/164/1
f 87/51/1 94/56/1 49/148/1 133/153/1
f 22/121/4 23/131/4 74/132/4 83/122/4
f 67/165/3 66/166/3 65/160/3 68/167/3
f 63/163/3 62/156/3 61/145/3 64/154/3
f 59/139/10 71/63/10 72/66/10 60/134/10
f 57/168/10 67/165/10 68/167/10 58/169/10
f 55/170/10 63/163/10 64/154/10 56/171/10
f 53/164/9 52/140/9 51/133/9 54/157/9
f 49/148/9 121/147/9 122/136/9 50/135/9
f 124/158/9 125/172/9 126/173/9 123/152/9
f 128/149/8 129/174/8 130/162/8 127/142/8
f 132/137/8 133/153/8 134/144/8 131/143/8
f 136/175/8 137/159/8 138/151/8 135/176/8
f 70/64/7 139/150/7 140/141/7 69/65/7
f 66/166/7 141/138/7 142/161/7 65/160/7
f 62/156/7 143/155/7 144/146/7 61/145/7
f 52/140/6 59/139/6 60/134/6 51/133/6
f 121/147/6 57/168/6 58/169/6 122/136/6
f 125/172/6 55/170/6 56/171/6 126/173/6
f 129/174/5 53/164/5 54/157/5 130/162/5
f 133/153/5 49/148/5 50/135/5 134/144/5
f 137/159/5 124/158/5 123/152/5 138/151/5
f 139/150/4 128/149/4 127/142/4 140/141/4
f 141/138/4 132/137/4 131/143/4 142/161/4
f 143/155/4 136/175/4 135/176/4 144/146/4
f 80/28/1 89/27/1 137/159/1 136/175/1
f 81/125/26 76/128/26 142/161/26 131/143/26
f 99/55/1 106/60/1 57/168/1 121/147/1
f 106/60/1 118/59/1 67/165/1 57/168/1
f 77/49/1 80/28/1 136/175/1 143/155/1
f 110/106/26 119/105/26 72/66/26 69/65/26
f 92/42/1 101/41/1 125/172/1 124/158/1
f 105/110/26 100/118/26 122/136/26 58/169/26
f 117/97/26 105/110/26 58/169/26 68/167/26
f 90/54/26 79/53/26 135/176/26 138/151/26
f 79/53/26 78/130/26 144/146/26 135/176/26
f 101/41/1 104/46/1 55/170/1 125/172/1
f 109/95/1 73/127/1 139/150/1 70/64/1
f 118/59/1 111/99/1 66/166/1 67/165/1
f 102/58/26 91/57/26 123/152/26 126/173/26
f 103/61/26 102/58/26 126/173/26 56/171/26
f 104/46/1 116/45/1 63/163/1 55/170/1
f 85/123/1 96/116/1 53/164/1 129/174/1
f 115/62/26 103/61/26 56/171/26 64/154/26
f 74/132/26 110/106/26 69/65/26 140/141/26
f 112/98/26 117/97/26 68/167/26 65/160/26
f 84/124/1 85/123/1 129/174/1 128/149/1
f 95/114/26 86/120/26 130/162/26 54/157/26
f 111/99/1 75/129/1 141/138/1 66/166/1
