# Blender 4.1.1
# www.blender.org
mtllib table_cloth.mtl
o table_cloth
v -0.504417 0.129521 0.177092
v 0.503661 0.129521 0.177092
v -0.504417 0.129521 -0.178568
v 0.503661 0.129521 -0.178568
v -0.504417 -0.000737 0.177092
v 0.503661 -0.000737 0.177092
v -0.504417 -0.000737 -0.178568
v 0.503661 -0.000737 -0.178568
v -0.500417 0.125521 0.177092
v 0.499661 0.125521 0.177092
v -0.500417 0.125521 -0.178568
v 0.499661 0.125521 -0.178568
v -0.500417 -0.000737 0.177092
v 0.499661 -0.000737 0.177092
v -0.500417 -0.000737 -0.178568
v 0.499661 -0.000737 -0.178568
v -0.499895 0.064220 0.500341
v 0.500197 0.064220 0.500341
v -0.499895 0.064220 -0.499751
v 0.500197 0.064220 -0.499751
v -0.499895 0.125021 0.500341
v 0.500197 0.125021 0.500341
v -0.499895 0.125021 -0.499751
v 0.500197 0.125021 -0.499751
v -0.479021 -0.173962 0.439573
v -0.438993 0.063260 0.439573
v -0.479021 -0.173962 0.351469
v -0.438993 0.063260 0.351469
v -0.390916 -0.173962 0.439573
v -0.350889 0.063260 0.439573
v -0.390916 -0.173962 0.351469
v -0.350889 0.063260 0.351469
v 0.479323 -0.173962 0.439573
v 0.439296 0.063260 0.439573
v 0.479323 -0.173962 0.351469
v 0.439296 0.063260 0.351469
v 0.391219 -0.173962 0.439573
v 0.351191 0.063260 0.439573
v 0.391219 -0.173962 0.351469
v 0.351191 0.063260 0.351469
v -0.479021 -0.173962 -0.438983
v -0.438993 0.063260 -0.438983
v -0.479021 -0.173962 -0.350878
v -0.438993 0.063260 -0.350878
v -0.390916 -0.173962 -0.438983
v -0.350889 0.063260 -0.438983
v -0.390916 -0.173962 -0.350878
v -0.350889 0.063260 -0.350878
v 0.479323 -0.173962 -0.438983
v 0.439296 0.063260 -0.438983
v 0.479323 -0.173962 -0.350878
v 0.439296 0.063260 -0.350878
v 0.391219 -0.173962 -0.438983
v 0.351191 0.063260 -0.438983
v 0.391219 -0.173962 -0.350878
v 0.351191 0.063260 -0.350878
v -0.051465 0.152524 0.177092
v -0.000378 0.129521 -0.208992
v -0.051465 0.148524 0.177092
v -0.000378 0.125521 -0.208992
vn 0.0225 0.9993 -0.0294
vn 1.0000 -0.0000 -0.0000
vn -1.0000 -0.0000 -0.0000
vn -0.0227 -0.9993 0.0294
vn -0.0000 -0.0000 1.0000
vn 0.0605 -0.0302 -0.9977
vn -0.0000 -1.0000 -0.0000
vn -0.0000 -0.0000 -1.0000
vn -0.0000 1.0000 -0.0000
vn -0.9861 0.1664 -0.0000
vn 0.9861 -0.1664 -0.0000
vn 0.9861 0.1664 -0.0000
vn -0.9861 -0.1664 -0.0000
vn -0.0605 -0.0302 -0.9977
vn 0.0253 -0.9991 0.0327
vn -0.0251 0.9992 -0.0327
vt 0.669504 0.853137
vt 0.672383 0.853137
vt 0.672383 0.858894
vt 0.669504 0.858894
vt 0.666626 0.853137
vt 0.666626 0.858894
vt 0.330688 0.948744
vt 0.330688 0.954501
vt 0.336445 0.954501
vt 0.336445 0.948744
vt 0.337891 0.942981
vt 0.339330 0.942981
vt 0.339330 0.944420
vt 0.337891 0.944420
vt 0.339330 0.945859
vt 0.337891 0.945859
vt 0.339330 0.947299
vt 0.337891 0.947299
vt 0.339330 0.948738
vt 0.337891 0.948738
vt 0.336451 0.945859
vt 0.336451 0.947299
vt 0.340769 0.945859
vt 0.340769 0.947299
vt 0.337891 0.948744
vt 0.337891 0.950183
vt 0.339330 0.950183
vt 0.339330 0.948744
vt 0.337891 0.951622
vt 0.339330 0.951622
vt 0.337891 0.953061
vt 0.339330 0.953061
vt 0.337891 0.954501
vt 0.339330 0.954501
vt 0.336451 0.951622
vt 0.336451 0.953061
vt 0.340769 0.953061
vt 0.340769 0.951622
vt 0.342214 0.942981
vt 0.342214 0.944420
vt 0.343654 0.944420
vt 0.343654 0.942981
vt 0.342214 0.945859
vt 0.343654 0.945859
vt 0.342214 0.947299
vt 0.343654 0.947299
vt 0.342214 0.948738
vt 0.343654 0.948738
vt 0.340775 0.945859
vt 0.340775 0.947299
vt 0.345093 0.947299
vt 0.345093 0.945859
vt 0.342214 0.948744
vt 0.343654 0.948744
vt 0.343654 0.950183
vt 0.342214 0.950183
vt 0.343654 0.951622
vt 0.342214 0.951622
vt 0.343654 0.953061
vt 0.342214 0.953061
vt 0.343654 0.954501
vt 0.342214 0.954501
vt 0.340775 0.951622
vt 0.340775 0.953061
vt 0.345093 0.951622
vt 0.345093 0.953061
s 0
usemtl texture
f 57/1/1 2/2/1 4/3/1 58/4/1
f 4/3/2 2/2/2 6/2/2 8/3/2
f 1/5/3 3/6/3 7/6/3 5/5/3
f 59/1/4 60/4/4 12/3/4 10/2/4
f 12/3/3 16/3/3 14/2/3 10/2/3
f 9/5/2 13/5/2 15/6/2 11/6/2
f 57/1/5 1/5/5 9/5/5 59/1/5
f 58/4/6 4/3/6 12/3/6 60/4/6
f 5/5/7 7/6/7 15/6/7 13/5/7
f 8/3/7 6/2/7 14/2/7 16/3/7
f 4/3/8 8/3/8 16/3/8 12/3/8
f 6/2/5 2/2/5 10/2/5 14/2/5
f 1/5/5 5/5/5 13/5/5 9/5/5
f 7/6/8 3/6/8 11/6/8 15/6/8
f 17/7/7 19/8/7 20/9/7 18/10/7
f 21/7/9 22/10/9 24/9/9 23/8/9
f 20/9/8 19/8/8 23/8/8 24/9/8
f 17/7/5 18/10/5 22/10/5 21/7/5
f 18/10/2 20/9/2 24/9/2 22/10/2
f 19/8/3 17/7/3 21/7/3 23/8/3
f 25/11/10 26/12/10 28/13/10 27/14/10
f 27/14/8 28/13/8 32/15/8 31/16/8
f 31/16/11 32/15/11 30/17/11 29/18/11
f 29/18/5 30/17/5 26/19/5 25/20/5
f 27/21/7 31/16/7 29/18/7 25/22/7
f 32/15/9 28/23/9 26/24/9 30/17/9
f 33/25/12 35/26/12 36/27/12 34/28/12
f 35/26/8 39/29/8 40/30/8 36/27/8
f 39/29/13 37/31/13 38/32/13 40/30/13
f 37/31/5 33/33/5 34/34/5 38/32/5
f 35/35/7 33/36/7 37/31/7 39/29/7
f 40/30/9 38/32/9 34/37/9 36/38/9
f 41/39/10 43/40/10 44/41/10 42/42/10
f 43/40/5 47/43/5 48/44/5 44/41/5
f 47/43/11 45/45/11 46/46/11 48/44/11
f 45/45/8 41/47/8 42/48/8 46/46/8
f 43/49/7 41/50/7 45/45/7 47/43/7
f 48/44/9 46/46/9 42/51/9 44/52/9
f 49/53/12 50/54/12 52/55/12 51/56/12
f 51/56/5 52/55/5 56/57/5 55/58/5
f 55/58/13 56/57/13 54/59/13 53/60/13
f 53/60/8 54/59/8 50/61/8 49/62/8
f 51/63/7 55/58/7 53/60/7 49/64/7
f 56/57/9 52/65/9 50/66/9 54/59/9
f 3/6/14 58/4/14 60/4/14 11/6/14
f 2/2/5 57/1/5 59/1/5 10/2/5
f 9/5/15 11/6/15 60/4/15 59/1/15
f 1/5/16 57/1/16 58/4/16 3/6/16
