# Blender 4.1.1
# www.blender.org
mtllib wall_1_5.mtl
o wall_1_5
v -0.768681 1.279982 0.060079
v -0.768681 0.219008 0.060079
v -0.768681 1.324631 0.110834
v -0.768681 0.009752 0.091972
v -0.768681 0.187347 0.091972
v -0.768681 1.537915 0.110834
v 0.768681 1.279982 0.060079
v 0.768681 0.219008 0.060079
v 0.768681 1.324631 0.110834
v 0.768681 0.009752 0.091972
v 0.768681 0.187347 0.091972
v 0.768681 1.537915 0.110834
v -0.768681 1.279982 -0.060079
v -0.768681 0.219008 -0.060079
v -0.768681 1.324631 -0.110834
v -0.768681 0.009752 -0.091972
v -0.768681 0.187347 -0.091972
v -0.768681 1.537915 -0.110834
v 0.768681 1.279982 -0.060079
v 0.768681 0.219008 -0.060079
v 0.768681 1.324631 -0.110834
v 0.768681 0.009752 -0.091972
v 0.768681 0.187347 -0.091972
v 0.768681 1.537915 -0.110834
vn -1.0000 -0.0000 -0.0000
vn 1.0000 -0.0000 -0.0000
vn -0.0000 -0.0000 1.0000
vn -0.0000 -0.7508 0.6605
vn -0.0000 0.7097 0.7045
vn -0.0000 1.0000 -0.0000
vn -0.0000 -0.0000 -1.0000
vn -0.0000 -0.7508 -0.6605
vn -0.0000 0.7097 -0.7045
vt 0.035156 0.243754
vt 0.035156 0.253093
vt 0.154297 0.257773
vt 0.154297 0.250791
vt 0.154297 0.249187
vt 0.154297 0.238435
vt 0.154297 0.230509
vt 0.154297 0.239848
s 1
usemtl texture
f 14/1/1 2/1/1 1/2/1 13/2/1
f 20/1/2 19/2/2 7/2/2 8/1/2
f 6/3/3 3/4/3 9/4/3 12/3/3
f 3/4/4 1/5/4 7/5/4 9/4/4
f 5/6/3 4/7/3 10/7/3 11/6/3
f 2/8/5 5/6/5 11/6/5 8/8/5
f 1/2/3 2/1/3 8/1/3 7/2/3
f 16/7/1 4/7/1 5/6/1 17/6/1
f 21/4/2 24/3/2 12/3/2 9/4/2
f 7/5/2 19/5/2 21/4/2 9/4/2
f 23/6/2 20/8/2 8/8/2 11/6/2
f 12/3/6 24/3/6 18/3/6 6/3/6
f 15/4/1 3/4/1 6/3/1 18/3/1
f 3/4/1 15/4/1 13/5/1 1/5/1
f 17/6/1 5/6/1 2/8/1 14/8/1
f 18/3/7 24/3/7 21/4/7 15/4/7
f 15/4/8 21/4/8 19/5/8 13/5/8
f 17/6/7 23/6/7 22/7/7 16/7/7
f 14/8/9 20/8/9 23/6/9 17/6/9
f 13/2/7 19/2/7 20/1/7 14/1/7
f 22/7/2 23/6/2 11/6/2 10/7/2
