# Blender 4.1.1
# www.blender.org
mtllib wall_shelf.mtl
o wall_shelf
v -0.304165 0.035093 0.005643
v -0.304165 0.056700 0.005643
v -0.304165 0.035093 -0.063679
v -0.304165 0.056700 -0.063679
v 0.325904 0.035093 0.005643
v 0.325904 0.056700 0.005643
v 0.325904 0.035093 -0.063679
v 0.325904 0.056700 -0.063679
v -0.304165 0.035093 0.078251
v -0.304165 0.056700 0.078251
v -0.304165 0.035093 0.008928
v -0.304165 0.056700 0.008928
v 0.325904 0.035093 0.078251
v 0.325904 0.056700 0.078251
v 0.325904 0.035093 0.008928
v 0.325904 0.056700 0.008928
v -0.304165 0.035093 0.150020
v -0.304165 0.056700 0.150020
v -0.304165 0.035093 0.080697
v -0.304165 0.056700 0.080697
v 0.325904 0.035093 0.150020
v 0.325904 0.035093 0.080697
v 0.325904 0.056700 0.080697
v -0.208720 0.056700 0.008928
v -0.304165 0.056700 0.042220
v -0.304165 0.035093 0.038585
v -0.304165 0.056700 0.062588
v -0.274962 0.056700 0.038340
v 0.309390 0.056700 0.150020
v 0.325904 0.044583 0.150020
v 0.325904 0.056700 0.139105
v -0.050816 0.056700 0.080697
v -0.051998 0.035093 0.150020
v -0.033343 0.056700 0.136601
v -0.049881 0.056700 0.150020
v -0.041858 0.044682 0.150020
v -0.008416 0.056700 0.150020
v 0.264055 0.005171 0.130947
v 0.264055 0.035091 0.130947
v 0.264055 0.005171 -0.063926
v 0.264055 0.035091 -0.063926
v 0.297684 0.005171 0.130947
v 0.297684 0.035091 0.130947
v 0.297684 0.005171 -0.063926
v 0.297684 0.035091 -0.063926
v -0.275537 0.005303 0.076382
v -0.275537 0.011761 0.064044
v -0.242724 0.005303 0.076382
v -0.242724 0.011761 0.064044
v -0.275537 -0.018901 0.024478
v -0.275537 0.007558 0.012140
v -0.242724 -0.018901 0.024478
v -0.242724 0.007558 0.012140
v -0.275537 -0.041878 -0.093876
v -0.242724 -0.068337 -0.081538
v -0.275537 -0.068337 -0.081538
v -0.242724 -0.041878 -0.093876
v -0.275537 -0.049976 -0.111241
v -0.242724 -0.076434 -0.098903
v -0.275537 -0.076434 -0.098903
v -0.242724 -0.049976 -0.111241
v -0.277272 -0.083875 -0.114312
v -0.277272 -0.033378 -0.114312
v -0.240989 -0.083875 -0.114312
v -0.240989 -0.033378 -0.114312
v -0.240989 -0.083875 -0.092686
v -0.277272 -0.083875 -0.092686
v -0.240989 -0.033378 -0.092686
v 0.297276 0.005303 0.076382
v 0.297276 0.011761 0.064044
v 0.264463 0.005303 0.076382
v 0.264463 0.011761 0.064044
v 0.297276 -0.018901 0.024478
v 0.297276 0.007558 0.012140
v 0.264463 -0.018901 0.024478
v 0.264463 0.007558 0.012140
v 0.297276 -0.041878 -0.093876
v 0.264463 -0.068337 -0.081538
v 0.297276 -0.068337 -0.081538
v 0.264463 -0.041878 -0.093876
v 0.297276 -0.049976 -0.111241
v 0.264463 -0.076434 -0.098903
v 0.297276 -0.076434 -0.098903
v 0.264463 -0.049976 -0.111241
v 0.299011 -0.083875 -0.114312
v 0.299011 -0.033378 -0.114312
v 0.262728 -0.083875 -0.114312
v 0.262728 -0.033378 -0.114312
v 0.299011 -0.033378 -0.092686
v 0.262728 -0.083875 -0.092686
v 0.262728 -0.033378 -0.092686
v -0.275945 0.005171 0.130947
v -0.275945 0.035091 0.130947
v -0.275945 0.005171 -0.063926
v -0.275945 0.035091 -0.063926
v -0.242316 0.005171 0.130947
v -0.242316 0.035091 0.130947
v -0.242316 0.005171 -0.063926
v -0.242316 0.035091 -0.063926
v -0.277272 -0.037977 -0.092686
v -0.272673 -0.033378 -0.092686
v -0.277272 -0.033378 -0.097285
v 0.299011 -0.076485 -0.092686
v 0.291620 -0.083875 -0.092686
v 0.299011 -0.083875 -0.100076
vn -1.0000 -0.0000 -0.0000
vn -0.0000 -0.0000 -1.0000
vn 1.0000 -0.0000 -0.0000
vn -0.0000 -0.0000 1.0000
vn -0.0000 -1.0000 -0.0000
vn -0.0000 1.0000 -0.0000
vn -0.5948 0.8039 -0.0000
vn 0.4408 0.6008 0.6669
vn -0.0000 0.7449 0.6672
vn -0.0000 0.8860 0.4638
vn -0.0000 -0.9063 0.4226
vn -0.0000 0.9967 -0.0807
vn -0.0000 0.9063 -0.4226
vn -0.5773 0.5774 0.5774
vn 0.5774 -0.5774 0.5774
vt 0.325867 0.944238
vt 0.327138 0.944238
vt 0.327138 0.945508
vt 0.325867 0.945508
vt 0.327138 0.946779
vt 0.325867 0.946779
vt 0.327138 0.948050
vt 0.325867 0.948050
vt 0.327138 0.949321
vt 0.325867 0.949321
vt 0.324596 0.946779
vt 0.324596 0.948050
vt 0.328408 0.946779
vt 0.328408 0.948050
vt 0.329686 0.945508
vt 0.330957 0.945508
vt 0.330957 0.945701
vt 0.330957 0.946779
vt 0.329686 0.946779
vt 0.330957 0.948050
vt 0.329686 0.948050
vt 0.330957 0.949321
vt 0.329686 0.949321
vt 0.328415 0.946779
vt 0.328415 0.948050
vt 0.328415 0.947323
vt 0.329686 0.944238
vt 0.330957 0.944238
vt 0.330957 0.944305
vt 0.329686 0.944965
vt 0.333505 0.944238
vt 0.334776 0.944238
vt 0.334776 0.945508
vt 0.333505 0.945508
vt 0.334776 0.946019
vt 0.334776 0.946779
vt 0.333505 0.946779
vt 0.334822 0.955010
vt 0.334789 0.954764
vt 0.334824 0.953739
vt 0.335335 0.953739
vt 0.335335 0.955010
vt 0.332234 0.946779
vt 0.333505 0.948050
vt 0.332743 0.948050
vt 0.332234 0.948050
vt 0.334776 0.947850
vt 0.334063 0.948050
vt 0.332035 0.946779
vt 0.332169 0.947318
vt 0.332227 0.947982
vt 0.332227 0.948050
vt 0.330957 0.945158
vt 0.332227 0.947130
vt 0.332227 0.946779
vt 0.334809 0.948050
vt 0.332958 0.953855
vt 0.332978 0.954419
vt 0.332962 0.955126
vt 0.332449 0.955126
vt 0.332449 0.953855
vt 0.334020 0.955010
vt 0.334020 0.954451
vt 0.334054 0.953739
vt 0.334695 0.953739
vt 0.334762 0.954446
vt 0.334782 0.955010
vt 0.335214 0.948057
vt 0.335436 0.948169
vt 0.335214 0.949796
vt 0.335560 0.949176
vt 0.335536 0.946779
vt 0.335500 0.947804
vt 0.335450 0.948050
vt 0.427429 0.951280
vt 0.428700 0.951280
vt 0.428700 0.952551
vt 0.427429 0.952551
vt 0.428700 0.953822
vt 0.427429 0.953822
vt 0.428700 0.955093
vt 0.427429 0.955093
vt 0.428700 0.956363
vt 0.427429 0.956363
vt 0.426159 0.953822
vt 0.426159 0.955093
vt 0.429971 0.953822
vt 0.429971 0.955093
vt 0.434770 0.954814
vt 0.434770 0.954815
vt 0.434769 0.954814
vt 0.434769 0.954814
vt 0.434769 0.954814
vt 0.434769 0.954814
vt 0.434769 0.954813
vt 0.434769 0.954814
vt 0.434963 0.954633
vt 0.434904 0.955014
vt 0.434574 0.954995
vt 0.434633 0.954616
vt 0.435524 0.954149
vt 0.435524 0.955802
vt 0.434012 0.953829
vt 0.434015 0.955479
vt 0.416325 0.958411
vt 0.416325 0.957140
vt 0.417596 0.957140
vt 0.417596 0.958411
vt 0.417702 0.957140
vt 0.417702 0.958411
vt 0.417596 0.959681
vt 0.417702 0.959681
vt 0.416407 0.957140
vt 0.416354 0.957371
vt 0.416219 0.958411
vt 0.416219 0.957256
vt 0.416241 0.957140
vt 0.436393 0.954642
vt 0.436393 0.954640
vt 0.436394 0.954642
vt 0.436393 0.954650
vt 0.436393 0.954641
vt 0.436394 0.954641
vt 0.436396 0.954638
vt 0.436399 0.954643
vt 0.436585 0.954844
vt 0.436553 0.954438
vt 0.436214 0.954458
vt 0.436252 0.954844
vt 0.437075 0.953870
vt 0.437109 0.955313
vt 0.435583 0.955685
vt 0.435583 0.953829
vt 0.417815 0.958411
vt 0.419086 0.958411
vt 0.419086 0.957140
vt 0.417815 0.957140
vt 0.419192 0.958411
vt 0.419192 0.957140
vt 0.419192 0.959422
vt 0.418975 0.959309
vt 0.417709 0.957140
vt 0.419192 0.955869
vt 0.419086 0.955869
vt 0.417709 0.958225
vt 0.417745 0.958411
vt 0.431248 0.951280
vt 0.432519 0.951280
vt 0.432519 0.952551
vt 0.431248 0.952551
vt 0.432519 0.953822
vt 0.431248 0.953822
vt 0.432519 0.955093
vt 0.431248 0.955093
vt 0.432519 0.956363
vt 0.431248 0.956363
vt 0.429978 0.953822
vt 0.429978 0.955093
vt 0.433790 0.953822
vt 0.433790 0.955093
vt 0.417998 0.959688
vt 0.417952 0.959904
vt 0.417998 0.961702
vt 0.417596 0.955869
vt 0.417679 0.955869
vt 0.417702 0.956030
vt 0.416219 0.959688
vt 0.416427 0.961583
vt 0.416219 0.961741
vt 0.419086 0.959681
vt 0.419155 0.959681
s 0
usemtl texture
f 1/1/1 2/2/1 4/3/1 3/4/1
f 3/4/2 4/3/2 8/5/2 7/6/2
f 7/6/3 8/5/3 6/7/3 5/8/3
f 5/8/4 6/7/4 2/9/4 1/10/4
f 3/11/5 7/6/5 5/8/5 1/12/5
f 8/5/6 4/13/6 2/14/6 6/7/6
f 11/15/2 12/16/2 24/17/2 16/18/2 15/19/2
f 15/19/3 16/18/3 14/20/3 13/21/3
f 13/21/4 14/20/4 10/22/4 9/23/4
f 11/24/5 15/19/5 13/21/5 9/25/5 26/26/5
f 9/27/1 10/28/1 27/29/1 26/30/1
f 17/31/1 18/32/1 20/33/1 19/34/1
f 19/34/2 20/33/2 32/35/2 23/36/2 22/37/2
f 35/38/6 34/39/6 32/40/6 20/41/6 18/42/6
f 19/43/5 22/37/5 21/44/5 33/45/5 17/46/5
f 22/37/3 23/36/3 31/47/3 30/48/3 21/44/3
f 16/18/6 24/49/6 28/50/6 27/51/6 10/52/6 14/20/6
f 26/30/1 25/53/1 12/16/1 11/15/1
f 25/54/7 26/30/7 27/29/7 28/50/7
f 25/54/6 28/50/6 24/49/6 12/55/6
f 29/56/8 30/48/8 31/47/8
f 33/57/4 36/58/4 35/59/4 18/60/4 17/61/4
f 21/62/4 30/63/4 29/64/4 37/65/4 36/66/4 33/67/4
f 34/68/9 35/69/9 36/70/9 37/71/9
f 23/36/6 32/72/6 34/73/6 37/74/6 29/56/6 31/47/6
f 38/75/1 39/76/1 41/77/1 40/78/1
f 40/78/2 41/77/2 45/79/2 44/80/2
f 44/80/3 45/79/3 43/81/3 42/82/3
f 42/82/4 43/81/4 39/83/4 38/84/4
f 40/85/5 44/80/5 42/82/5 38/86/5
f 45/79/6 41/87/6 39/88/6 43/81/6
f 52/89/3 53/90/3 49/91/3 48/92/3
f 48/92/10 49/91/10 47/93/10 46/94/10
f 50/95/11 52/89/11 48/92/11 46/94/11
f 53/90/12 51/96/12 47/93/12 49/91/12
f 57/97/13 54/98/13 51/96/13 53/90/13
f 56/99/11 55/100/11 52/89/11 50/95/11
f 55/100/3 57/97/3 53/90/3 52/89/3
f 46/94/1 47/93/1 51/96/1 50/95/1
f 50/95/1 51/96/1 54/98/1 56/99/1
f 54/98/13 57/97/13 61/101/13 58/102/13
f 57/97/3 55/100/3 59/103/3 61/101/3
f 56/99/1 54/98/1 58/102/1 60/104/1
f 55/100/11 56/99/11 60/104/11 59/103/11
f 62/105/2 63/106/2 65/107/2 64/108/2
f 64/108/3 65/107/3 68/109/3 66/110/3
f 62/111/5 64/108/5 66/110/5 67/112/5
f 66/110/4 68/109/4 101/113/4 100/114/4 67/112/4
f 67/115/1 100/116/1 102/117/1 63/106/1 62/105/1
f 75/118/1 71/119/1 72/120/1 76/121/1
f 71/119/10 69/122/10 70/123/10 72/120/10
f 73/124/11 69/122/11 71/119/11 75/118/11
f 76/121/12 72/120/12 70/123/12 74/125/12
f 80/126/13 76/121/13 74/125/13 77/127/13
f 79/128/11 73/124/11 75/118/11 78/129/11
f 78/129/1 75/118/1 76/121/1 80/126/1
f 69/122/3 73/124/3 74/125/3 70/123/3
f 73/124/3 79/128/3 77/127/3 74/125/3
f 77/127/13 81/130/13 84/131/13 80/126/13
f 80/126/1 84/131/1 82/132/1 78/129/1
f 79/128/3 83/133/3 81/130/3 77/127/3
f 78/129/11 82/132/11 83/133/11 79/128/11
f 85/134/2 87/135/2 88/136/2 86/137/2
f 87/135/1 90/138/1 91/139/1 88/136/1
f 90/138/4 104/140/4 103/141/4 89/142/4 91/139/4
f 88/136/6 91/139/6 89/143/6 86/144/6
f 103/145/3 105/146/3 85/134/3 86/137/3 89/142/3
f 92/147/1 93/148/1 95/149/1 94/150/1
f 94/150/2 95/149/2 99/151/2 98/152/2
f 98/152/3 99/151/3 97/153/3 96/154/3
f 96/154/4 97/153/4 93/155/4 92/156/4
f 94/157/5 98/152/5 96/154/5 92/158/5
f 99/151/6 95/159/6 93/160/6 97/153/6
f 100/161/14 101/162/14 102/163/14
f 65/107/6 63/164/6 102/165/6 101/166/6 68/109/6
f 103/167/15 104/168/15 105/169/15
f 85/170/5 105/171/5 104/140/5 90/138/5 87/135/5
